<svg width="115" height="115" viewBox="0 0 115 115" fill="none" xmlns="http://www.w3.org/2000/svg">
<rect width="115" height="115" rx="57.5" fill="#873B03"/>
<path d="M81.5628 82.7614C80.6292 84.8454 78.6877 86.5732 76.5947 87.4267C74.9417 88.1007 73.1917 88.2756 71.4226 88.3339V87.1626C71.4226 87.148 71.2946 87.0196 71.2629 87.0414C70.8664 88.2228 69.0746 89.528 69.3386 87.2518C69.4194 86.555 70.1334 85.2143 70.7866 84.9092C71.3445 84.6496 72.2001 84.8245 72.8297 84.7789C73.6789 84.7161 74.7857 84.4091 75.555 84.0411C75.7555 83.9455 76.5494 83.4054 76.6111 83.4054C76.7862 83.4054 77.3586 83.9828 77.4575 83.8909L75.2148 81.2768C76.3861 80.3222 77.3931 78.9551 77.6181 77.4303H63.7763L62.9607 81.6192L59.0278 81.6302C59.0351 76.7326 54.5914 72.9536 49.7567 73.7387C46.0134 74.3463 43.0141 77.7965 43.0948 81.6302L39.1456 81.5947C38.907 80.4798 38.6049 79.3677 38.3899 78.2492C38.3672 78.1326 38.4398 77.9841 38.408 77.8193C37.019 70.5955 35.5321 63.389 34.1558 56.1624C34.506 55.9739 34.4842 55.5413 34.6557 55.1924C35.1456 54.1923 35.7607 54.012 36.2107 53.3607C36.4402 53.0283 36.6543 52.2522 36.9138 51.805C39.3189 47.6498 45.7975 46.5577 49.1325 50.0908C49.3176 50.2867 49.6796 50.988 49.9382 50.8232C50.0298 50.7649 50.3092 50.0244 50.4045 49.8367C50.5451 49.5598 50.839 49.3349 50.82 49.0024C50.0688 48.9368 49.7404 48.9742 49.4927 49.7274C49.0736 49.2465 48.3877 48.9915 49.1842 48.4504C49.5181 48.2236 50.2167 48.026 50.6122 48.0397C51.065 48.056 51.6964 48.6016 51.867 47.8721C51.5249 47.8529 51.2763 47.6034 50.9343 47.556C49.9545 47.4194 48.8667 47.9467 48.4448 48.8421C47.9649 48.496 47.4451 48.5224 47.9259 47.914C48.7406 46.8811 50.1051 46.4002 51.387 46.6971C51.7381 46.7782 52.6236 47.2554 52.8341 47.1926C52.9257 47.1653 53.0101 47.0951 53.0727 47.0232C51.4523 45.7098 49.2868 45.7881 47.7907 47.2536C47.1321 47.8985 47.5068 48.22 46.4244 47.7983C46.3663 47.7755 46.2575 47.8147 46.3146 47.6708C46.5151 47.1725 47.4088 46.2972 47.8642 45.9948C49.7313 44.7543 51.4932 44.9711 53.3684 46.0003C53.8348 46.2562 54.0198 46.7098 54.6023 46.2972C52.2807 44.103 48.6653 43.9965 46.5142 46.4976C46.36 46.6771 45.8828 47.4804 45.8311 47.5132C45.6696 47.6161 45.0917 47.3374 44.8649 47.3857C46.0633 44.7415 49.1117 43.153 51.9631 43.8571C53.343 44.1978 54.5787 45.0694 55.6266 46.0012L56.3723 45.9329C56.4095 45.7917 56.3133 45.7717 56.2526 45.6906C53.4537 41.9763 47.5557 42.4353 44.9601 46.1497C44.8268 46.341 44.3577 47.2327 44.3024 47.2664C44.0647 47.413 43.6228 47.1561 43.3353 47.2245C45.4183 41.8442 52.5528 40.4351 56.4939 44.7206C56.6635 44.9055 57.3267 45.8491 57.4175 45.8937C57.6161 45.9912 57.9373 45.9047 58.1732 45.9429C60.1038 46.2599 61.9328 47.2381 63.1304 48.802C63.6085 49.4259 64.1301 50.702 64.5801 51.1429C64.8151 51.3733 65.3549 51.5801 65.6652 51.8305C66.6849 52.653 67.2184 53.8371 67.5976 55.0594C67.7119 55.4283 67.6829 55.9584 67.9614 56.1643L64.0394 76.1197L64.0167 76.5414H77.8186C78.0282 76.5414 78.2777 73.7852 78.2641 73.4454C77.8785 73.2168 77.4321 73.0647 77.1354 72.7049L78.8238 71.4535C80.0232 70.8833 81.2616 70.3249 82.4455 69.7575C82.8638 71.284 81.8468 72.9336 80.3534 73.3116C80.3317 73.3325 80.3988 73.419 80.4333 73.4336C80.6474 73.5292 81.7424 72.9445 81.8005 72.9873C81.8876 73.2351 81.8976 73.603 82.1452 73.7333L89.8278 76.5222L93.5094 76.5432C93.9639 76.6288 93.9811 77.2764 93.5919 77.3493C93.1873 77.4404 90.4438 77.23 90.3322 77.3493C90.3159 77.3675 90.3394 77.6908 90.295 77.8375C90.0918 78.5124 89.5284 78.7365 88.8625 78.6226C87.9443 78.465 88.5712 78.1699 88.5222 77.5925L86.4301 80.1565L82.6079 77.4303L82.4464 80.3368C85.0938 80.7512 87.4408 82.6858 88.9169 84.8673C89.0847 85.1159 90.1308 86.8201 90.011 86.9594C89.8123 86.9995 89.4676 86.9868 89.3669 87.2017C90.7495 87.046 91.4427 87.9331 89.9602 88.6463C89.2526 88.9869 87.3437 89.283 86.8838 88.5233C86.7368 88.2811 86.6116 87.8466 86.4873 87.6298C85.4104 85.759 83.7257 83.9801 81.4793 83.7296C81.4521 83.3853 81.6299 83.0866 81.7216 82.7605C81.7424 82.6858 81.9856 82.0373 81.8422 82.0328C81.708 82.2495 81.6635 82.531 81.561 82.7605L81.5628 82.7614ZM63.2946 50.9416C62.7711 49.4879 61.5681 48.2409 60.2099 47.5369C57.1253 45.9365 53.2968 47.0013 51.4315 49.8996C51.309 50.089 51.0096 50.5463 50.9815 50.7412C50.9497 50.9671 51.3925 50.8732 51.5113 50.7876C51.602 50.722 52.2389 49.5944 52.4694 49.3267C55.0314 46.3491 59.8588 46.769 62.1542 49.8659C62.4926 50.3222 62.6296 51.0928 63.2937 50.9425L63.2946 50.9416ZM61.7659 51.0217C61.1943 49.7866 59.9586 48.8257 58.6685 48.4368C56.3351 47.7318 53.8638 48.68 52.5918 50.7403C52.7189 50.7958 53.1235 50.8186 53.2187 50.763C53.2505 50.7439 53.2913 50.6 53.3521 50.5381C55.7636 48.056 58.9353 48.0479 61.1127 50.8341C61.168 50.9051 61.1816 51.0727 61.2125 51.0955C61.3104 51.1674 61.6271 51.0044 61.7668 51.0226L61.7659 51.0217ZM37.4627 52.8798C38.1104 52.8971 38.0243 52.6375 38.281 52.2887C38.8689 51.4917 39.4241 50.8605 40.2851 50.3431C42.5614 48.9733 46.2675 49.0443 48.0828 51.1465C48.2951 51.3924 48.3423 51.8287 48.6462 51.5473C49.0708 51.1547 48.7987 50.927 48.4884 50.5772C46.8508 48.7264 43.1311 48.5379 40.9728 49.4196C39.4813 50.0289 37.9889 51.3387 37.4609 52.8807L37.4627 52.8798ZM54.4426 50.7794C55.1022 50.9361 55.4887 50.4962 56.0339 50.3176C57.177 49.9433 58.2576 50.2302 59.2646 50.8268C59.4315 50.9252 59.9986 51.3997 60.0494 51.4143C60.6999 51.5928 59.8316 50.7102 59.6747 50.5772C58.332 49.4387 56.356 49.2975 54.9008 50.3104C54.7493 50.416 54.4508 50.5745 54.4435 50.7794H54.4426ZM39.7789 52.7013C39.817 52.6794 40.2053 52.163 40.3577 52.0309C41.9553 50.6519 44.8458 50.3577 46.5133 51.7513C46.673 51.8843 47.1847 52.5328 47.2382 52.5373C47.3335 52.5455 47.7662 52.2841 47.7517 52.1266C47.7154 51.7367 46.6231 50.958 46.2566 50.7976C44.2888 49.9378 41.6351 50.2548 39.9993 51.6711C39.8242 51.8232 39.2254 52.4271 39.1529 52.5984C39.0676 52.7978 39.7226 52.7341 39.7798 52.7013H39.7789ZM59.0296 51.5063C58.3655 50.825 57.3757 50.6465 56.4549 50.7813L57.5989 51.0454L59.0305 51.5063H59.0296ZM36.5763 56.1105H38.3872C38.7011 56.1105 40.2869 55.5914 40.9628 55.5458C41.6986 55.4966 42.6231 55.6533 43.3216 55.4902C44.3577 55.2471 47.201 53.9218 48.2198 53.3789C49.1171 52.9008 49.7758 52.173 50.8617 52.0737C52.8731 51.8888 53.2323 53.7833 52.5501 55.3017C54.4217 54.308 53.1734 51.3451 51.3435 51.3396C50.1368 51.3359 47.6283 53.3525 46.3963 53.9728C45.2033 54.573 43.6727 55.0913 42.3337 55.146C40.8594 55.2061 38.1177 54.3663 36.951 55.3973C36.765 55.5613 36.5636 55.8564 36.5763 56.1114V56.1105ZM58.3056 52.0728C58.2666 52.0355 57.412 51.8041 57.2759 51.7731C56.4975 51.5928 55.6048 51.5263 54.8064 51.5892C54.6377 51.6028 53.6461 51.7577 53.6406 51.8697C53.8992 52.5528 54.1296 52.2468 54.6413 52.2304C54.9906 52.2185 55.4279 52.2067 55.7699 52.2349C56.278 52.2768 57.0273 52.6047 57.3948 52.6175C57.4955 52.6211 58.0888 52.3278 58.2022 52.2532C58.263 52.214 58.4318 52.1949 58.3056 52.0728ZM46.3945 53.1212C46.5378 52.9326 45.4074 52.2185 45.2423 52.1393C43.7308 51.4161 41.9236 51.7085 40.7623 52.9208C41.3484 53.2678 41.5979 52.8042 42.0497 52.5975C43.1348 52.101 44.3577 52.2258 45.3747 52.8133C45.7893 53.0529 45.8528 53.4463 46.3945 53.1212ZM54.3619 56.1105H55.5286C55.6175 56.1105 56.6944 55.1487 56.9112 54.9948C59.8325 52.9226 64.0312 50.876 66.2059 55.0868C66.2903 55.2498 66.5588 56.0704 66.6051 56.0996C66.684 56.1488 66.8872 56.0941 66.997 56.1105C66.8528 54.328 65.6108 52.0874 63.701 51.785C60.4758 51.2758 56.4794 53.8444 54.3619 56.1096V56.1105ZM49.5335 56.1096C50.624 56.1315 51.7009 55.8436 52.1672 54.7561C52.6436 53.644 52.2689 52.3916 50.8817 52.5783C49.9463 52.704 49.3357 53.3553 48.5419 53.7824C47.1756 54.5175 45.6523 55.0294 44.2225 55.6269C44.1908 55.8355 44.2552 55.7945 44.4221 55.7863C46.3827 55.6934 48.2815 53.94 50.0425 53.2687C51.7889 52.6029 52.1473 53.8681 51.065 55.0212L49.5344 56.1087L49.5335 56.1096ZM56.5338 53.2041C55.8053 52.9891 55.0296 53.0082 54.2757 53.0765C54.1323 53.1767 54.2203 53.9564 54.1913 54.2032C54.1405 54.6404 53.8556 55.1842 53.559 55.5066L52.7524 56.1096C53.461 56.2125 53.8511 55.3154 54.3601 54.9383L56.5338 53.2041ZM44.9456 53.6076C44.9066 53.5648 43.9694 53.2259 43.8524 53.2095C43.4042 53.1467 42.9506 53.2114 42.5323 53.3653C42.5342 53.4791 42.761 53.5238 42.8562 53.5629C43.5666 53.8544 44.1046 54.1923 44.8431 53.787C44.9166 53.7469 45.0554 53.7287 44.9456 53.6076ZM65.7895 56.1096C64.2472 51.4881 59.3998 53.869 56.8568 56.1096C57.1308 56.0759 57.5109 56.1697 57.7658 56.0941C57.8448 56.0704 58.4245 55.523 58.6023 55.3992C60.5647 54.0311 63.3363 53.6331 65.0637 55.5877C65.305 55.861 65.295 56.2189 65.7895 56.1105V56.1096ZM42.4516 54.3326C42.36 54.1413 42.0706 54.1122 41.8882 54.0511C39.3969 53.2214 36.0301 53.0529 35.1292 56.1096C36.002 56.2444 35.7371 55.9156 36.0238 55.3527C37.0816 53.2742 40.6553 54.4109 42.4525 54.3326H42.4516ZM46.3945 56.1105H47.8833C48.0393 56.1105 50.0089 54.8882 50.2502 54.6905C50.4616 54.5175 50.918 54.1468 50.8599 53.848L46.3945 56.1105ZM64.4214 56.1105C63.1694 54.4956 60.4386 54.8937 59.0296 56.1105H64.4214Z" fill="#FDFDFD"/>
<path d="M50.9552 74.635C56.3179 74.6104 59.7845 80.4434 57.1117 85.1578C54.977 88.9241 49.8701 89.9078 46.5179 87.1207C41.4364 82.8953 44.3949 74.666 50.9552 74.6359V74.635ZM50.4988 76.8656C49.5798 76.9403 48.5927 77.3128 47.925 77.9559L50.0516 80.1C50.1459 80.2366 50.4988 80.1774 50.4988 80.0553V76.8656ZM51.465 76.8656V80.0553C51.465 80.1774 51.818 80.2357 51.9123 80.1L54.0389 77.9559C53.3712 77.3128 52.3841 76.9403 51.465 76.8656ZM49.4528 81.2267C49.4374 81.0645 49.5834 80.9106 49.4609 80.7813C49.1561 80.5536 47.4124 78.6208 47.2509 78.6481C46.5859 79.3021 46.2239 80.3086 46.1531 81.2267H49.4528ZM55.8107 81.2267C55.74 80.3086 55.378 79.3021 54.713 78.6481C54.4154 78.8931 52.4793 80.7029 52.4494 80.8733C52.4467 80.8906 52.4939 81.2267 52.5111 81.2267H55.8107ZM51.4641 81.1456C51.6374 80.9789 50.9624 80.7439 50.8 80.7585C50.0951 80.8241 49.636 81.8269 50.4181 82.1138C50.1241 81.3014 50.6948 80.8651 51.4641 81.1447V81.1456ZM49.3321 82.1156H46.1531C45.9862 82.5091 46.9697 84.6742 47.1647 84.706C47.2509 84.7197 47.3407 84.6833 47.4042 84.6232L49.4963 82.5173C49.5734 82.4199 49.4029 82.1384 49.3312 82.1156H49.3321ZM55.8107 82.1156H52.6318C52.5855 82.1156 52.3795 82.4226 52.4666 82.5173L54.5587 84.6232C54.6222 84.6833 54.7121 84.7197 54.7982 84.706C54.9933 84.6751 55.9768 82.51 55.8098 82.1156H55.8107ZM50.4988 86.4767V83.287C50.4988 83.1649 50.1459 83.1066 50.0516 83.2423L47.925 85.3864C48.6 86.0349 49.5744 86.4093 50.4988 86.4767ZM51.465 86.4767C52.3841 86.402 53.3712 86.0295 54.0389 85.3864L51.9123 83.2423C51.818 83.1057 51.465 83.1649 51.465 83.287V86.4767Z" fill="#FDFDFD"/>
<path d="M39.152 48.6791C38.9569 48.7255 38.7283 48.8257 38.5632 48.9368C38.3345 49.0907 37.9272 49.578 37.7475 49.4032C34.0342 43.5402 30.378 37.6389 26.6638 31.775C26.2301 31.09 25.7447 30.4324 25.3084 29.7438C24.9609 29.1964 24.0346 27.9185 23.8441 27.4185C23.4549 26.3974 24.9591 25.5813 25.6685 26.2326C29.8709 33.3225 34.2656 40.3012 38.4606 47.3948C38.5623 47.566 39.2137 48.5962 39.1511 48.6791H39.152Z" fill="#F08323"/>
<path d="M30.7355 42.5892C32.794 45.1906 34.8498 47.801 36.9428 50.3778C36.9882 50.4333 36.9637 50.4798 36.9483 50.5381C36.9274 50.6155 36.2016 51.8232 36.1317 51.908C36.0365 52.0245 36.0655 51.9872 35.9712 51.9116C31.513 46.5295 27.0956 41.1137 22.652 35.7198C22.3154 35.3117 21.224 34.2633 21.1423 33.8407C20.9944 33.0765 22.3825 32.0291 22.9795 32.8069C25.5669 36.065 28.1544 39.3257 30.7355 42.5892Z" fill="#F08323"/>
<path d="M78.8266 71.4544C78.6306 71.5473 78.3884 71.5965 78.2087 71.6821C76.299 72.5902 74.421 73.5903 72.4713 74.4027L76.7081 65.2452L86.471 67.74L82.6288 69.5799C82.539 69.5872 82.4728 69.7457 82.4473 69.7575C81.2643 70.3249 80.025 70.8833 78.8256 71.4535L78.8266 71.4544Z" fill="#F08323"/>
</svg>
