<svg width="100" height="42" viewBox="0 0 100 42" fill="none" xmlns="http://www.w3.org/2000/svg">
<path fill-rule="evenodd" clip-rule="evenodd" d="M77.4691 15.8886C77.3327 16.6294 77.1172 17.4847 76.828 18.4273C76.5374 19.37 76.165 20.3645 75.7257 21.3726C75.2483 22.3889 74.7531 23.3398 74.2565 24.1965C73.7654 25.045 73.2743 25.7748 72.8036 26.3655C72.3439 26.9412 71.9169 27.3668 71.5377 27.6315C71.2512 27.8307 71.0916 27.8525 71.037 27.8525C71.0113 27.8525 70.9906 27.8484 70.9688 27.8386C70.9209 27.8169 70.7614 27.7103 70.6919 27.2042C70.6264 26.7404 70.662 26.1306 70.7942 25.3926C70.9306 24.6327 71.1448 23.7692 71.4354 22.832C71.7218 21.8948 72.0943 20.9003 72.5404 19.8786C72.9824 18.865 73.4653 17.9196 73.9782 17.067C74.4884 16.2157 74.985 15.4941 75.4556 14.9211C75.9126 14.3618 76.3396 13.943 76.7243 13.6743C77.0121 13.4751 77.1704 13.4533 77.2249 13.4533C77.2525 13.4533 77.2729 13.4574 77.2918 13.4672C77.3397 13.4878 77.4991 13.5954 77.57 14.1015C77.6341 14.5654 77.6 15.1656 77.4691 15.8886ZM58.3187 15.8886C58.1823 16.6294 57.9668 17.4847 57.6776 18.4273C57.3856 19.3755 57.0132 20.3686 56.5753 21.3726C56.0965 22.3917 55.6013 23.3425 55.1061 24.1965C54.6136 25.0464 54.1239 25.7762 53.6532 26.3655C53.1935 26.9412 52.7679 27.3668 52.3859 27.6315C52.0994 27.8307 51.9412 27.8525 51.8866 27.8525C51.8609 27.8525 51.8402 27.8484 51.8184 27.839C51.7704 27.8174 51.611 27.7108 51.5414 27.2047C51.4759 26.7423 51.5101 26.1338 51.6438 25.3931C51.7788 24.6346 51.9944 23.7738 52.2849 22.8325C52.5714 21.8939 52.9438 20.9008 53.3899 19.8791C53.8333 18.8627 54.3176 17.9174 54.8264 17.0675C55.3393 16.2149 55.8359 15.4932 56.3052 14.9216C56.7635 14.3623 57.1919 13.9421 57.5739 13.6748C57.8603 13.4756 58.0199 13.4538 58.0745 13.4538C58.1021 13.4538 58.1225 13.4579 58.1413 13.4672C58.1893 13.4878 58.35 13.5954 58.4196 14.1015C58.4838 14.5654 58.4495 15.1656 58.3187 15.8886ZM37.5695 15.6976C37.485 16.4507 37.3213 17.3101 37.0825 18.2541C36.8424 19.1954 36.515 20.1858 36.1071 21.2007C35.7006 22.2102 35.2681 23.1597 34.8193 24.0219C34.38 24.8649 33.9367 25.5839 33.4988 26.1595C33.0732 26.7189 32.6735 27.1363 32.3092 27.3996C32.0405 27.5947 31.8904 27.6165 31.8399 27.6165C31.8167 27.6165 31.7961 27.6124 31.7744 27.6026C31.7255 27.5809 31.5562 27.4702 31.4689 26.956C31.387 26.4853 31.3802 25.8783 31.4457 25.1498C31.5139 24.4104 31.668 23.5605 31.9054 22.6247C32.1427 21.6875 32.4715 20.6957 32.8808 19.6781C33.2927 18.6549 33.7265 17.7068 34.1699 16.8556C34.6065 16.0139 35.0512 15.2868 35.4918 14.6933C35.9147 14.1204 36.3158 13.6975 36.6786 13.4342C36.9474 13.2391 37.0975 13.2173 37.1493 13.2173C37.1725 13.2173 37.1931 13.2214 37.212 13.2312C37.2638 13.2529 37.4398 13.3676 37.5476 13.8887C37.6431 14.3526 37.6511 14.9596 37.5695 15.6976ZM79.5264 9.4415C80.529 9.4415 81.3912 9.74844 82.0897 10.3555C82.7636 10.9407 83.2451 11.777 83.5193 12.8397C83.7853 13.8696 83.8399 15.1151 83.683 16.5434C83.5261 17.954 83.1141 19.5637 82.4552 21.3276C81.8345 22.9946 81.1224 24.4611 80.3421 25.6848C79.9642 26.2796 79.5755 26.8362 79.1812 27.3505C79.1307 27.416 79.2062 27.5019 79.278 27.4624C79.5072 27.3382 79.7351 27.2032 79.9601 27.0558C80.4731 26.7243 80.9655 26.3669 81.4335 25.989C82.739 24.9318 83.6871 23.5021 84.1482 21.8951C84.4238 20.9279 84.7293 19.9689 85.0622 19.0235C85.6078 17.467 86.1903 16.0141 86.7947 14.7045C87.3949 13.399 87.8942 12.4222 88.2789 11.7988C88.7155 11.0894 89.3266 10.6474 90.1001 10.4837C90.8231 10.331 91.5147 10.3418 92.1505 10.5136C92.8012 10.691 93.3332 11.0129 93.7302 11.474C94.1626 11.9774 94.2568 12.5504 94.0003 13.1315C93.9239 13.332 93.7234 13.7904 93.4042 14.4957C93.0835 15.205 92.7234 16.0331 92.3046 17.0317C91.9022 17.9907 91.4888 19.0288 91.0769 20.1147C90.6744 21.1815 90.3593 22.1774 90.141 23.075C89.9282 23.9481 89.845 24.6738 89.8928 25.2318C89.9392 25.7652 90.1424 25.7652 90.2529 25.7652C90.4084 25.7652 90.684 25.6915 91.1123 25.3423C91.5243 25.0012 91.9595 24.5906 92.4083 24.1159C92.8571 23.6398 93.2882 23.1269 93.6865 22.5921C94.0508 22.1051 94.3632 21.674 94.6169 21.3098C94.8379 20.9919 95.1899 20.8105 95.5814 20.8105C95.9948 20.8105 96.3958 21.0178 96.6045 21.3384C96.8078 21.6521 96.8024 22.0259 96.5868 22.3615C96.3167 22.7831 95.8447 23.4897 95.1435 24.5251C94.4491 25.5483 93.6183 26.6028 92.6743 27.6614C91.7139 28.735 90.6649 29.6886 89.5531 30.4948C88.3839 31.3447 87.2026 31.7744 86.0444 31.7744C84.9967 31.7744 84.215 31.4115 83.7198 30.694C83.2697 30.0392 83.0405 29.1606 83.0405 28.0829V27.911C83.0433 27.7828 82.8932 27.7105 82.7936 27.791C82.574 27.967 82.3475 28.1416 82.117 28.3135C80.7553 29.3271 79.1838 30.1865 77.4431 30.8699C75.8893 31.4811 74.1772 31.7908 72.3547 31.7908L71.9836 31.7867L71.6112 31.7743C70.3698 31.7716 69.449 31.3827 68.872 30.6147C68.7697 30.4797 68.6755 30.3405 68.5923 30.1973C68.5255 30.0827 68.3522 30.1018 68.314 30.2298C68.1271 30.8532 67.9498 31.4548 67.7861 32.0305C67.4314 33.2678 67.1286 34.3387 66.8625 35.3045C66.5951 36.2731 66.3632 37.1557 66.1723 37.9319C65.9881 38.6795 65.8598 39.2852 65.7944 39.734L65.7902 39.7507C65.6225 40.6005 65.0481 40.8993 64.5938 41.0016C64.3919 41.0465 64.1819 41.0698 63.969 41.0698C63.5844 41.0698 63.1778 40.9948 62.7617 40.8488C62.1288 40.6251 61.5599 40.2391 61.0688 39.7002C60.56 39.1409 60.3021 38.4411 60.3021 37.6198C60.3021 37.4534 60.3444 37.0892 60.6705 35.7482C60.9147 34.7591 61.2434 33.5286 61.6513 32.0894C61.9269 31.114 62.2407 30.0527 62.5885 28.9177C62.6293 28.7813 62.4739 28.6681 62.3566 28.7486C61.1439 29.5739 59.7838 30.2873 58.2995 30.8699C56.7444 31.481 55.0337 31.7907 53.2111 31.7907C52.9656 31.7907 52.7146 31.785 52.4663 31.7742C51.2263 31.7714 50.3055 31.3826 49.727 30.6146C49.6247 30.4796 49.5319 30.3418 49.4488 30.1972C49.3806 30.0826 49.2086 30.103 49.1705 30.2297C48.9822 30.8544 48.8048 31.4574 48.6412 32.0304C48.2851 33.2718 47.9823 34.344 47.719 35.3044C47.4516 36.273 47.2183 37.1556 47.0273 37.9318C46.8432 38.6808 46.7163 39.2865 46.6495 39.7339L46.6467 39.7505C46.479 40.6004 45.9033 40.8992 45.449 41.0015C45.2471 41.0463 45.0384 41.0697 44.8256 41.0697C44.4409 41.0697 44.0343 40.9946 43.6169 40.8487C42.9839 40.625 42.4164 40.2389 41.9253 39.7001C41.4165 39.1407 41.1586 38.4409 41.1586 37.6197C41.1586 37.4519 41.1994 37.0876 41.527 35.748C41.7726 34.7494 42.1013 33.5189 42.5065 32.0893C42.7466 31.2394 43.0126 30.3336 43.3113 29.3555C43.3551 29.2081 43.1749 29.0963 43.0603 29.2013C42.5515 29.6651 42.0276 30.0976 41.4902 30.4932C40.3374 31.3431 39.1642 31.7741 38.0047 31.7741C36.957 31.7741 36.1739 31.4113 35.6801 30.6937C35.481 30.4043 35.3255 30.0701 35.2123 29.695C35.1127 29.3607 34.6843 29.2584 34.4415 29.5108C34.1005 29.8655 33.7253 30.1888 33.3229 30.4739C32.799 30.845 32.2138 31.156 31.5808 31.3988C30.9288 31.6471 30.2235 31.774 29.4841 31.774C28.4841 31.774 27.607 31.4698 26.8785 30.8681C26.1691 30.287 25.6439 29.463 25.3151 28.4167C24.9959 27.4031 24.8786 26.1576 24.9659 24.713C25.0532 23.286 25.3779 21.6845 25.9318 19.9506C27.1118 16.3546 28.6506 13.6849 30.5072 12.0111C32.398 10.3058 34.316 9.44095 36.2082 9.44095C37.0089 9.44095 37.6869 9.60192 38.2203 9.9184C38.7455 10.2321 39.1507 10.6469 39.4249 11.1516C39.6077 11.4913 39.7414 11.8555 39.8232 12.243C39.838 12.3112 39.931 12.3248 39.9651 12.2636C40.0606 12.0917 40.1521 11.9376 40.238 11.797C40.6745 11.0904 41.2775 10.6484 42.0319 10.4833C42.7371 10.3306 43.4274 10.3401 44.0809 10.5122C44.7507 10.6896 45.2923 11.0128 45.6906 11.4739C46.123 11.9773 46.2172 12.5503 45.9593 13.1314C45.8843 13.3292 45.6906 13.7767 45.3645 14.4956C45.0467 15.1995 44.6756 16.0521 44.265 17.0316C43.8585 18.0015 43.4451 19.0397 43.0373 20.1147C42.6334 21.1814 42.3183 22.1787 42.1014 23.0749C41.8886 23.9494 41.8054 24.6751 41.8532 25.2317C41.8996 25.7651 42.1029 25.7651 42.212 25.7651C42.3689 25.7651 42.6444 25.6914 43.0714 25.3422C43.3074 25.1471 43.553 24.9275 43.804 24.686C44.7766 23.7488 45.4287 22.7257 45.8639 21.4529C46.4423 19.7641 47.0507 18.097 47.6755 16.49C48.3426 14.7807 48.9933 13.246 49.6099 11.9282C49.9319 11.2461 50.4421 10.7864 51.1215 10.5654C51.7585 10.358 52.412 10.3144 53.0545 10.4358C53.6957 10.5586 54.2577 10.8137 54.7243 11.1957C54.9316 11.3648 55.0967 11.5476 55.2194 11.74C55.2519 11.7918 55.2904 11.7973 55.3354 11.755C55.8865 11.2461 56.4949 10.7796 57.1511 10.3635C58.1115 9.75097 59.1988 9.44131 60.3829 9.44131C61.3842 9.44131 62.2477 9.74824 62.9448 10.3553C63.6201 10.9419 64.1016 11.7768 64.3758 12.8395C64.6418 13.8681 64.6964 15.1149 64.5395 16.5432C64.3826 17.9524 63.9693 19.5635 63.3117 21.3274C62.6897 22.9958 61.9776 24.4623 61.1973 25.6846C60.8194 26.2794 60.4306 26.836 60.0363 27.3503C59.9858 27.4158 60.062 27.5017 60.1346 27.4622C60.3624 27.338 60.5902 27.203 60.8167 27.0556C61.1836 26.8182 61.5397 26.5672 61.8835 26.3053C63.1903 25.3122 64.1657 23.9535 64.6855 22.4065L64.8901 21.8021C65.504 19.9878 66.1534 18.2007 66.8191 16.49C67.4875 14.778 68.1382 13.2433 68.7548 11.9282C69.0755 11.2461 69.5843 10.7877 70.2664 10.5654C70.9034 10.358 71.5569 10.3144 72.1994 10.4358C72.8406 10.5586 73.4012 10.8137 73.8678 11.1943C74.0752 11.3648 74.2402 11.5476 74.363 11.74C74.3959 11.7918 74.4339 11.7973 74.4789 11.7549C75.0301 11.2461 75.6385 10.7796 76.2946 10.3635C77.2564 9.75091 78.3436 9.4415 79.5264 9.4415ZM16.7822 0.944015C18.2201 0.944015 19.6606 1.11045 21.0657 1.43646C22.4804 1.7666 23.7641 2.26861 24.8786 2.92887C26.0068 3.59732 26.9331 4.43629 27.6315 5.4226C28.3436 6.42663 28.7038 7.60392 28.7038 8.92172C28.7038 10.3405 28.3873 11.6719 27.7625 12.8778C27.1432 14.0715 26.2905 15.1615 25.2306 16.1178C24.1802 17.0672 22.9347 17.9049 21.5282 18.606C20.3686 19.1845 19.1368 19.6783 17.8572 20.0753C17.7753 20.101 17.7467 20.1435 17.7508 20.2253C17.7781 20.8528 17.8231 21.4735 17.8872 22.071C17.9595 22.7572 18.055 23.4257 18.1723 24.06C18.2869 24.6834 18.426 25.2905 18.5829 25.8648C18.7057 26.3095 18.8421 26.742 18.9881 27.1526C19.0809 27.4145 19.1791 27.671 19.2787 27.9111C19.4792 28.3954 19.7002 28.8592 19.9349 29.2889C20.1654 29.7118 20.415 30.1129 20.677 30.4812C20.9321 30.84 21.2063 31.177 21.4914 31.4853C21.7697 31.7854 22.0643 32.0609 22.3672 32.3065C22.6619 32.5452 22.9729 32.7621 23.2907 32.9477C23.6004 33.1304 23.9251 33.2887 24.2566 33.4197C24.5826 33.5479 24.9196 33.6516 25.2593 33.7266C25.6003 33.8016 25.9509 33.8494 26.3056 33.8726C26.6589 33.8942 27.0272 33.8901 27.3942 33.8576C27.768 33.8252 28.15 33.7649 28.5292 33.6762C28.918 33.5862 29.3136 33.4675 29.7079 33.3215C30.1117 33.1715 30.5195 32.9886 30.922 32.7826C31.0761 32.7035 31.2316 32.6189 31.3858 32.5317C31.8878 32.2452 32.529 32.3816 32.8659 32.8454C33.2043 33.3092 33.1293 33.9504 32.6927 34.3269C32.4785 34.5111 32.263 34.6911 32.0502 34.863C31.5331 35.2804 31.0148 35.6679 30.5086 36.013C30.0285 36.3404 29.5401 36.646 29.0572 36.9175C28.8157 37.0539 28.562 37.1876 28.3041 37.3158C27.809 37.5641 27.3083 37.7824 26.8131 37.9652C26.3206 38.1466 25.8254 38.298 25.3425 38.4126C24.8609 38.5272 24.3753 38.6104 23.9019 38.6582C23.5636 38.6922 23.2253 38.71 22.8952 38.71C22.7615 38.71 22.6278 38.7072 22.4941 38.7005C22.0357 38.6813 21.5801 38.6283 21.1381 38.5423C20.9198 38.5 20.6988 38.4481 20.4833 38.3881C20.2746 38.3322 20.0604 38.2654 19.8462 38.1876C19.4356 38.0404 19.0277 37.859 18.6375 37.6476C18.2556 37.4402 17.879 37.2015 17.5216 36.9368C17.2324 36.7226 16.9487 36.4866 16.6799 36.237C16.3566 35.9369 16.0415 35.6026 15.7427 35.248C15.4481 34.8974 15.1657 34.5181 14.9038 34.1211C14.6405 33.7255 14.3922 33.3026 14.163 32.8661C13.9352 32.4295 13.7183 31.9657 13.5218 31.4883C13.3267 31.0149 13.1453 30.5129 12.9803 29.9931C12.8179 29.4829 12.6693 28.9427 12.5382 28.3861C12.4086 27.8309 12.2954 27.2552 12.2013 26.6741C12.1167 26.1598 12.0458 25.6264 11.9899 25.0848C11.9734 24.9211 11.7375 24.8993 11.6897 25.059C11.4851 25.7657 11.2996 26.4505 11.1359 27.1053C10.9299 27.9265 10.7402 28.6741 10.5684 29.3453C10.4006 30.0028 10.2819 30.5321 10.2137 30.9182C10.0773 31.603 9.62299 32.0354 8.89452 32.176C8.26836 32.2987 7.59582 32.2469 6.90282 32.0259C6.218 31.8063 5.59593 31.4257 5.05162 30.8923C4.48139 30.333 4.19219 29.6304 4.19219 28.8024C4.19219 28.1285 4.36409 27.063 4.71604 25.5474C5.05978 24.0673 5.55501 22.313 6.19071 20.3308C6.82097 18.365 7.58627 16.1973 8.46344 13.8919C9.21647 11.9111 10.0623 9.91664 10.979 7.94949C11.2791 7.3056 11.8998 6.86224 12.616 6.78039C14.2353 6.59488 15.6404 6.64123 16.8313 6.91682C17.5489 7.08325 17.9336 7.85128 17.6335 8.51291C16.8654 10.2018 16.1574 11.8865 15.5244 13.5263C15.0129 14.8536 14.5218 16.1673 14.0579 17.4456C14.0131 17.5725 14.1439 17.6898 14.2667 17.6338C14.8846 17.3542 15.4944 17.024 16.0906 16.6475C17.0673 16.0295 17.9568 15.2915 18.7357 14.4553C19.5106 13.619 20.1463 12.6764 20.6251 11.6519C21.0971 10.6369 21.3372 9.53466 21.3372 8.37238C21.3372 6.87861 20.9171 5.77498 20.089 5.09426C19.25 4.40534 18.0686 4.05475 16.5762 4.05475C14.9869 4.05475 13.5341 4.42582 12.2586 5.15837C10.949 5.90867 9.8167 6.83086 8.89315 7.90037C7.96278 8.97808 7.22885 10.1295 6.71455 11.3231C6.20437 12.5059 5.94515 13.5426 5.94515 14.4062C5.94515 15.0241 5.61368 15.4702 5.01205 15.6626C4.48412 15.8317 3.90162 15.8072 3.3041 15.5876C2.72978 15.3774 2.19775 14.9614 1.72165 14.353C1.24281 13.7418 1 12.9138 1 11.892C1 10.9998 1.34375 9.94939 2.05042 8.6807C2.73797 7.44339 3.75564 6.23881 5.07208 5.09972C6.38715 3.96336 8.046 2.97706 10.0077 2.16946C11.9803 1.35641 14.2598 0.944015 16.7822 0.944015ZM95.0412 0C97.2416 0 99.0246 1.7598 99.0246 3.92884C99.0246 6.09789 97.2416 7.85768 95.0412 7.85768C92.8408 7.85768 91.0578 6.09789 91.0578 3.92884C91.0578 1.7598 92.8408 0 95.0412 0Z" fill="#F4F2E5"/>
</svg>
