<svg width="185" height="34" viewBox="0 0 185 34" fill="none" xmlns="http://www.w3.org/2000/svg">
<g clip-path="url(#clip0_141_57)">
<path d="M110.422 12.5452H107.297V28.846H110.422V12.5452Z" fill="#F4F2E5"/>
<path d="M84.0989 28.846V5.67328H92.0721C99.3241 5.67328 103.211 10.7873 103.211 17.2596C103.211 23.8519 99.1638 28.846 92.032 28.846H84.0989ZM91.4711 26.0893C97.0804 26.0893 100.085 23.1727 100.085 17.2596C100.085 11.2267 96.8801 8.43004 91.5913 8.43004H87.2241V26.0893H91.4711Z" fill="#F4F2E5"/>
<path d="M106.857 7.1116C106.857 5.99292 107.738 5.11395 108.86 5.11395C109.982 5.11395 110.863 5.99292 110.863 7.1116C110.863 8.23029 109.982 9.10925 108.86 9.10925C107.738 9.10925 106.857 8.19033 106.857 7.1116Z" fill="#F4F2E5"/>
<path d="M78.69 12.5452H75.5648V28.846H78.69V12.5452Z" fill="#F4F2E5"/>
<path d="M52.2463 28.846V5.67328H60.2195C67.4715 5.67328 71.3579 10.7873 71.3579 17.2596C71.3579 23.8519 67.3112 28.846 60.1794 28.846H52.2463ZM59.6185 26.0893C65.2278 26.0893 68.2327 23.1727 68.2327 17.2596C68.2327 11.2267 65.0274 8.43004 59.7387 8.43004H55.3715V26.0893H59.6185Z" fill="#F4F2E5"/>
<path d="M75.1241 7.1116C75.1241 5.99292 76.0056 5.11395 77.1274 5.11395C78.2493 5.11395 79.1307 5.99292 79.1307 7.1116C79.1307 8.23029 78.2493 9.10925 77.1274 9.10925C76.0456 9.10925 75.1241 8.19033 75.1241 7.1116Z" fill="#F4F2E5"/>
<path d="M141.233 12.0658C135.985 12.0658 133.1 15.0623 133.1 20.4559C133.1 25.8895 135.985 28.8461 141.233 28.8461C146.482 28.8461 149.367 25.8496 149.367 20.4559C149.327 15.0223 146.442 12.0658 141.233 12.0658ZM141.233 26.9283C137.066 26.9283 135.023 24.8108 135.023 20.416C135.023 16.0211 137.066 13.9036 141.233 13.9036C145.4 13.9036 147.444 16.0211 147.444 20.416C147.444 24.8108 145.4 26.9283 141.233 26.9283Z" fill="#F4F2E5"/>
<path d="M159.103 12.0658C153.854 12.0658 150.969 15.0623 150.969 20.4559C150.969 25.8895 153.854 28.8461 159.103 28.8461C164.352 28.8461 167.236 25.8496 167.236 20.4559C167.196 15.0223 164.311 12.0658 159.103 12.0658ZM159.103 26.9283C154.936 26.9283 152.893 24.8108 152.893 20.416C152.893 16.0211 154.936 13.9036 159.103 13.9036C163.27 13.9036 165.313 16.0211 165.313 20.416C165.313 24.8108 163.27 26.9283 159.103 26.9283Z" fill="#F4F2E5"/>
<path d="M121.32 6.99173H133.501V5.19385H119.357V28.846H121.32V18.3384H131.417V16.5005H121.32V6.99173Z" fill="#F4F2E5"/>
<path d="M182.542 5.51348V14.423C181.219 12.8648 179.216 12.0258 176.572 12.0258C171.563 12.0258 168.799 15.0223 168.799 20.4559C168.799 25.8895 171.563 28.886 176.572 28.886C179.176 28.886 181.179 28.047 182.502 26.5288L182.662 28.6063H184.385V5.11395L182.542 5.51348ZM176.612 26.9283C172.685 26.9283 170.762 24.8108 170.762 20.4159C170.762 16.0211 172.685 13.9036 176.612 13.9036C180.538 13.9036 182.461 16.0211 182.461 20.4159C182.461 24.8108 180.538 26.9283 176.612 26.9283Z" fill="#F4F2E5"/>
<path d="M21.155 26.4888C28.3268 26.2491 34.0563 20.5758 34.1364 13.4642V7.3913H42.0294V14.1434C41.8692 25.0905 32.3334 33.7603 21.155 34C9.77615 33.9201 0.160265 25.2103 0 14.1434V2.0376C0 0.79906 0.801324 0 2.00331 0H34.0963V7.3913H8.93476C8.2937 7.3913 7.89304 7.79083 7.89304 8.43008V13.3443C7.97317 20.5358 13.7828 26.4089 21.155 26.4888Z" fill="#F4F2E5"/>
</g>
<defs>
<clipPath id="clip0_141_57">
<rect width="184.385" height="34" fill="white"/>
</clipPath>
</defs>
</svg>
