<svg width="150" height="24" viewBox="0 0 150 24" fill="none" xmlns="http://www.w3.org/2000/svg">
<path d="M79.1888 0H95.6498V3.96188H83.6353V9.58775H95.3155V13.4149H83.6353V19.1359H95.6498V23.0978H79.1888V0ZM141.11 23.5138C146.156 23.5138 149 21.1366 149 17.872C149 15.5464 147.316 13.8111 143.792 13.0584L140.067 12.3096C137.904 11.9134 137.223 11.5172 137.223 10.7248C137.223 9.69869 138.266 9.06875 140.187 9.06875C142.27 9.06875 143.812 9.61945 144.215 11.5132H148.581C148.343 7.94753 145.738 5.59418 140.453 5.59418C135.886 5.59418 132.68 7.44834 132.68 11.0418C132.68 13.5259 134.444 15.1423 138.25 15.9307L142.415 16.8776C144.058 17.1946 144.497 17.6304 144.497 18.2999C144.497 19.3657 143.257 20.0352 141.251 20.0352C138.729 20.0352 137.288 19.4845 136.728 17.5908H132.338C132.978 21.1485 135.66 23.5138 141.11 23.5138ZM131.069 23.0819H126.344C123.38 23.0819 121.737 21.2674 121.737 18.9774V9.9047H118.414V6.03791H121.753V1.1846H126.143V6.03791H131.069V9.9047H126.143V17.872C126.143 18.7793 126.783 19.2151 127.786 19.2151H131.069V23.0819ZM112.139 6.04583V7.58304C110.593 6.29775 108.633 5.59554 106.609 5.6021C105.397 5.57703 104.193 5.79014 103.066 6.22895C101.939 6.66776 100.912 7.32344 100.046 8.15755C99.1803 8.99166 98.4923 9.98742 98.0226 11.0865C97.5529 12.1855 97.311 13.3657 97.311 14.5579C97.311 15.7501 97.5529 16.9304 98.0226 18.0294C98.4923 19.1285 99.1803 20.1242 100.046 20.9583C100.912 21.7924 101.939 22.4481 103.066 22.8869C104.193 23.3257 105.397 23.5388 106.609 23.5138C108.633 23.5224 110.594 22.8199 112.139 21.5328V23.074H116.517V6.03791L112.139 6.04583ZM106.971 19.7738C105.921 19.7855 104.891 19.4899 104.012 18.9245C103.133 18.3591 102.445 17.5493 102.035 16.5982C101.625 15.6471 101.512 14.5976 101.709 13.5829C101.907 12.5683 102.407 11.6345 103.146 10.9001C103.885 10.1656 104.829 9.66383 105.858 9.45839C106.887 9.25295 107.955 9.35316 108.926 9.74629C109.898 10.1394 110.728 10.8077 111.312 11.6662C111.897 12.5247 112.208 13.5347 112.207 14.5678C112.214 15.2489 112.083 15.9244 111.822 16.5553C111.561 17.1862 111.176 17.7599 110.688 18.2433C110.201 18.7268 109.62 19.1102 108.981 19.3716C108.341 19.6329 107.656 19.7669 106.963 19.7658L106.971 19.7738Z" fill="#F4F2E5"/>
<path d="M69.4177 9.23515C67.2146 9.23515 65.6518 10.9308 65.6518 13.5338V23.0819H62.2887V6.27562H65.6115V8.32788C66.0214 7.64768 66.6087 7.08769 67.3127 6.70594C68.0166 6.3242 68.8115 6.13459 69.615 6.15676H70.8233V9.23515H69.4177ZM59.9648 14.6788C59.9648 9.66699 56.3399 5.91905 51.4342 5.91905C50.2751 5.92679 49.129 6.1599 48.0619 6.60496C46.9947 7.05002 46.0276 7.69826 45.216 8.51237C44.4045 9.32648 43.7646 10.2904 43.3332 11.3487C42.9018 12.4069 42.6874 13.5387 42.7023 14.6788C42.7023 19.6866 46.6292 23.4742 51.7524 23.4742C53.1835 23.5007 54.6001 23.1885 55.8828 22.5638C57.1656 21.9392 58.2769 21.0203 59.123 19.8847L56.6823 18.1256C56.1223 18.8944 55.3814 19.5183 54.5228 19.944C53.6643 20.3697 52.7137 20.5845 51.7524 20.5701C50.3832 20.5637 49.0617 20.0751 48.0273 19.1928C46.9928 18.3104 46.314 17.0927 46.1137 15.7604H59.9728L59.9648 14.6788ZM46.1862 13.1376C46.7863 10.5743 48.8686 8.83896 51.3939 8.83896C53.9193 8.83896 55.9975 10.5743 56.5614 13.1376H46.1862ZM32.0491 5.91905C30.9252 5.91998 29.8126 6.13999 28.7757 6.56636C27.7387 6.99274 26.7979 7.61702 26.0077 8.40315V0H22.6446V23.0819H25.9674V20.9504C27.5771 22.5523 29.7675 23.46 32.0572 23.4742C33.245 23.499 34.4258 23.2903 35.5305 22.8603C36.6352 22.4304 37.6416 21.7878 38.4905 20.9703C39.3395 20.1527 40.0139 19.1767 40.4744 18.0994C40.9349 17.0221 41.1721 15.8652 41.1721 14.6966C41.1721 13.528 40.9349 12.3711 40.4744 11.2938C40.0139 10.2165 39.3395 9.24048 38.4905 8.42295C37.6416 7.60542 36.6352 6.96284 35.5305 6.53288C34.4258 6.10291 33.245 5.89423 32.0572 5.91905H32.0491ZM31.8075 20.5186C30.6353 20.5241 29.4878 20.1869 28.5107 19.5499C27.5335 18.9128 26.7708 18.0046 26.3193 16.9405C25.8677 15.8764 25.7477 14.7043 25.9744 13.5729C26.2012 12.4416 26.7645 11.402 27.5928 10.5861C28.4211 9.77017 29.4772 9.21467 30.627 8.99009C31.7768 8.76551 32.9685 8.88197 34.0509 9.32469C35.1333 9.7674 36.0577 10.5164 36.7066 11.4767C37.3556 12.437 37.6999 13.5653 37.6959 14.7184C37.697 15.479 37.5453 16.2323 37.2497 16.935C36.954 17.6378 36.5202 18.2762 35.9731 18.8137C35.426 19.3511 34.7764 19.777 34.0615 20.0668C33.3467 20.3567 32.5807 20.5048 31.8075 20.5027V20.5186ZM10.2596 20.3601C13.5059 20.3601 16.0272 17.9117 16.0272 14.243V0H19.5111V23.0819H16.0674V20.8989C15.2629 21.7169 14.298 22.3657 13.2312 22.8063C12.1644 23.2469 11.0178 23.4701 9.86083 23.4623C4.85446 23.4623 1 19.8728 1 14.4292V0H4.54836V14.2628C4.54836 17.9513 6.96495 20.3601 10.2596 20.3601Z" fill="#F4F2E5"/>
</svg>
