<svg width="1920" height="300" viewBox="0 0 1920 300" fill="none" xmlns="http://www.w3.org/2000/svg">
<g opacity="0.08">
<path d="M213.557 304.142C227.885 263.44 252.129 227.411 283.409 198.986C265.214 178.531 238.716 165.621 209.258 165.621C154.522 165.621 109.999 210.163 109.999 264.906C109.999 283.88 115.355 301.627 124.624 316.725C149.865 308.458 176.809 303.971 204.809 303.971C207.74 303.971 210.656 304.038 213.565 304.134L213.557 304.142Z" fill="#F4F2E5"/>
<path d="M56.3941 264.906C56.3941 291.716 63.2975 316.903 75.4156 338.809C90.0481 330.29 105.596 323.161 121.872 317.625C112.551 302.23 107.18 284.185 107.18 264.906C107.18 208.608 152.967 162.808 209.25 162.808C239.549 162.808 266.798 176.083 285.507 197.119C298.206 185.831 312.027 175.771 326.786 167.147C325.217 165.264 323.61 163.419 321.951 161.61L400.477 120.7C401.496 120.172 401.86 118.899 401.288 117.91L397.315 111.027C396.742 110.037 395.455 109.717 394.496 110.335L318.968 158.441C314.445 153.775 309.624 149.4 304.544 145.337L379.246 87.9747C380.153 87.2753 380.295 85.9657 379.558 85.0876L374.455 79.0009C373.719 78.1229 372.402 78.0336 371.554 78.8075L301.516 142.978C296.495 139.176 291.235 135.664 285.76 132.494L352.652 59.4461C353.425 58.6053 353.336 57.2808 352.458 56.5441L346.373 51.4396C345.495 50.703 344.179 50.8443 343.487 51.7521L282.807 130.82C277.443 127.866 271.879 125.232 266.151 122.932L321.519 35.9624C322.137 34.9951 321.817 33.7153 320.828 33.1423L313.947 29.1688C312.957 28.5959 311.685 28.9679 311.157 29.9799L263.332 121.831C257.745 119.718 252.002 117.925 246.125 116.466L286.772 18.253C287.211 17.1963 286.675 15.9835 285.604 15.5965L278.143 12.8806C277.064 12.4862 275.881 13.0741 275.539 14.1679L243.47 115.834C237.764 114.532 231.939 113.549 226.01 112.902L249.495 6.84598C249.741 5.72984 249.012 4.62858 247.881 4.42767L240.063 3.05109C238.932 2.85019 237.868 3.63149 237.719 4.76996L223.496 112.649C218.809 112.217 214.063 111.987 209.265 111.987C208.179 111.987 207.1 112.009 206.014 112.031L210.79 2.09866C210.842 0.952749 209.927 0.000306874 208.782 0.000307074L200.837 0.000308464C199.691 0.000308664 198.776 0.952751 198.828 2.09866L203.604 112.106C197.735 112.322 191.947 112.857 186.264 113.713L171.899 4.79229C171.75 3.65382 170.687 2.87252 169.556 3.07343L161.737 4.45001C160.607 4.65091 159.878 5.74474 160.123 6.86832L183.868 114.115C178.066 115.082 172.375 116.377 166.818 117.984L134.072 14.1902C133.73 13.0964 132.539 12.516 131.468 12.9029L124.007 15.6189C122.928 16.0133 122.4 17.2187 122.839 18.2753L164.401 118.698C158.732 120.432 153.212 122.501 147.841 124.852L98.4541 30.0023C97.9259 28.9829 96.6538 28.6182 95.6644 29.1912L88.7834 33.1647C87.794 33.7376 87.4741 35.0249 88.0916 35.9848L145.372 125.961C139.912 128.476 134.63 131.296 129.542 134.414L66.1168 51.7671C65.4175 50.8593 64.1083 50.7179 63.2305 51.4546L57.1454 56.5591C56.2676 57.2957 56.1783 58.6128 56.952 59.461L127.027 135.984C121.865 139.28 116.918 142.882 112.209 146.766L38.0495 78.8224C37.2089 78.0485 35.8848 78.1378 35.1483 79.0159L30.0452 85.1026C29.3087 85.9806 29.4501 87.2977 30.3576 87.9897L109.679 148.894C104.926 152.979 100.418 157.354 96.2001 161.99L15.1077 110.342C14.1406 109.725 12.8611 110.045 12.2883 111.034L8.31592 117.917C7.74312 118.907 8.11507 120.179 9.12678 120.708L93.7229 164.78C89.505 169.647 85.5921 174.788 82.0065 180.161L-2.01682 145.367C-3.07315 144.928 -4.28571 145.464 -4.67253 146.535L-7.38776 153.998C-7.78203 155.077 -7.19435 156.26 -6.10082 156.603L79.7227 183.688C76.1967 189.298 73.0276 195.147 70.2455 201.219L-12.7959 182.825C-13.9117 182.579 -15.0127 183.308 -15.2136 184.439L-16.5898 192.267C-16.7906 193.398 -16.0095 194.462 -14.8714 194.611L68.3262 205.587C65.6854 211.859 63.4537 218.348 61.6609 225.015L-16.9022 221.6C-18.0478 221.547 -19 222.463 -19 223.609L-19 231.556C-19 232.701 -18.0478 233.617 -16.9022 233.565L60.3516 230.209C57.7629 241.355 56.3941 252.971 56.3941 264.906Z" fill="#F4F2E5"/>
<path d="M786.872 198.986C768.677 178.531 742.179 165.621 712.721 165.621C681.075 165.621 652.844 180.51 634.656 203.652C663.527 231.31 685.963 265.635 699.516 304.142C702.425 304.045 705.341 303.978 708.272 303.978C711.203 303.978 714.119 304.045 717.028 304.142C731.355 263.44 755.599 227.411 786.88 198.986H786.872Z" fill="#F4F2E5"/>
<path d="M632.603 201.717C651.312 178.032 680.272 162.808 712.721 162.808C743.02 162.808 770.269 176.083 788.978 197.118C801.676 185.831 815.498 175.77 830.257 167.146C828.687 165.264 827.08 163.418 825.421 161.61L903.947 120.7C904.966 120.172 905.331 118.899 904.758 117.909L900.785 111.027C900.213 110.037 898.926 109.717 897.966 110.335L822.438 158.44C817.915 153.775 813.095 149.4 808.014 145.337L882.716 87.9745C883.624 87.275 883.765 85.9654 883.029 85.0874L877.925 79.0007C877.189 78.1227 875.872 78.0334 875.024 78.8072L804.986 142.978C799.965 139.176 794.706 135.664 789.231 132.494L856.122 59.4459C856.896 58.605 856.806 57.2805 855.928 56.5439L849.843 51.4394C848.966 50.7027 847.649 50.8441 846.957 51.7519L786.277 130.82C780.914 127.865 775.349 125.231 769.621 122.932L824.99 35.9622C825.607 34.9949 825.287 33.715 824.298 33.1421L817.417 29.1686C816.427 28.5957 815.155 28.9677 814.627 29.9797L766.802 121.831C761.215 119.718 755.472 117.924 749.596 116.466L790.242 18.2527C790.681 17.1961 790.146 15.9833 789.074 15.5963L781.613 12.8804C780.534 12.486 779.352 13.0738 779.009 14.1677L746.94 115.833C741.234 114.531 735.409 113.549 729.481 112.902L752.965 6.84576C753.211 5.72962 752.482 4.62836 751.351 4.42745L743.533 3.05087C742.402 2.84997 741.338 3.63127 741.19 4.76974L726.966 112.649C722.28 112.217 717.534 111.987 712.736 111.987C711.649 111.987 710.571 112.009 709.485 112.031L714.26 2.09844C714.313 0.95253 713.398 8.7828e-05 712.252 8.80283e-05L704.307 8.94174e-05C703.161 8.96177e-05 702.247 0.952532 702.299 2.09844L707.074 112.106C701.205 112.321 695.417 112.857 689.734 113.713L675.377 4.77719C675.228 3.63872 674.164 2.85742 673.034 3.05833L665.215 4.43491C664.085 4.63581 663.355 5.72963 663.601 6.85322L687.346 114.1C681.544 115.067 675.853 116.362 670.296 117.969L637.557 14.1751C637.215 13.0813 636.025 12.5009 634.953 12.8878L627.492 15.6038C626.414 15.9982 625.885 17.2036 626.324 18.2602L667.886 118.683C662.217 120.417 656.698 122.486 651.327 124.837L601.939 29.9872C601.411 28.9678 600.139 28.6031 599.15 29.1761L592.269 33.1496C591.279 33.7225 590.959 35.0098 591.577 35.9697L648.857 125.946C643.397 128.461 638.115 131.281 633.027 134.399L569.602 51.752C568.903 50.8442 567.594 50.7028 566.716 51.4394L560.631 56.5439C559.753 57.2806 559.664 58.5977 560.437 59.4459L630.512 135.969C625.35 139.265 620.403 142.866 615.694 146.751L541.535 78.8073C540.694 78.0334 539.37 78.1227 538.634 79.0008L533.53 85.0875C532.794 85.9655 532.935 87.2825 533.843 87.9746L613.165 148.879C608.411 152.964 603.903 157.339 599.685 161.975L518.593 110.327C517.626 109.71 516.346 110.03 515.774 111.019L511.801 117.902C511.228 118.892 511.6 120.164 512.612 120.692L597.208 164.765C595.519 166.715 593.875 168.709 592.284 170.748C606.745 179.736 620.254 190.117 632.618 201.71L632.603 201.717Z" fill="#F4F2E5"/>
<path d="M1292.46 201.449C1274.24 179.573 1246.81 165.621 1216.18 165.621C1185.56 165.621 1156.31 180.51 1138.12 203.652C1166.99 231.31 1189.43 265.635 1202.98 304.142C1205.89 304.045 1208.8 303.978 1211.74 303.978C1216.25 303.978 1220.74 304.097 1225.2 304.328C1239.11 264.712 1262.42 229.531 1292.47 201.456L1292.46 201.449Z" fill="#F4F2E5"/>
<path d="M1136.07 201.717C1154.77 178.032 1183.73 162.808 1216.18 162.808C1248.63 162.808 1275.78 177.102 1294.52 199.529C1307.04 188.085 1320.68 177.869 1335.27 169.051C1333.22 166.506 1331.09 164.021 1328.88 161.61L1407.41 120.7C1408.43 120.171 1408.79 118.899 1408.22 117.909L1404.25 111.026C1403.68 110.037 1402.39 109.717 1401.43 110.334L1325.9 158.44C1321.38 153.775 1316.56 149.4 1311.48 145.337L1386.18 87.9744C1387.09 87.275 1387.23 85.9653 1386.49 85.0873L1381.39 79.0006C1380.65 78.1226 1379.34 78.0333 1378.49 78.8071L1308.45 142.978C1303.43 139.176 1298.17 135.664 1292.69 132.494L1359.58 59.4458C1360.36 58.605 1360.27 57.2805 1359.39 56.5438L1353.31 51.4393C1352.43 50.7027 1351.11 50.844 1350.42 51.7518L1289.74 130.819C1284.38 127.865 1278.81 125.231 1273.08 122.932L1328.45 35.9621C1329.07 34.9948 1328.75 33.715 1327.76 33.142L1320.88 29.1685C1319.89 28.5956 1318.62 28.9676 1318.09 29.9796L1270.27 121.831C1264.68 119.718 1258.94 117.924 1253.06 116.466L1293.71 18.2527C1294.14 17.196 1293.61 15.9832 1292.54 15.5962L1285.08 12.8803C1284 12.4859 1282.81 13.0738 1282.47 14.1676L1250.4 115.833C1244.7 114.531 1238.87 113.549 1232.94 112.902L1256.43 6.84567C1256.67 5.72953 1255.94 4.62827 1254.81 4.42736L1247 3.05079C1245.87 2.84988 1244.8 3.63118 1244.65 4.76965L1230.43 112.649C1225.74 112.217 1221 111.986 1216.2 111.986C1215.11 111.986 1214.03 112.009 1212.95 112.031L1217.72 2.09835C1217.78 0.952442 1216.86 -2.00303e-07 1215.71 0L1207.77 1.38913e-06C1206.62 1.58943e-06 1205.71 0.952444 1205.76 2.09835L1210.54 112.105C1204.67 112.321 1198.88 112.857 1193.2 113.713L1178.84 4.7771C1178.69 3.63863 1177.63 2.85733 1176.5 3.05824L1168.68 4.43482C1167.55 4.63572 1166.82 5.72955 1167.06 6.85313L1190.81 114.1C1185.01 115.067 1179.32 116.362 1173.76 117.969L1141.02 14.175C1140.68 13.0812 1139.49 12.5008 1138.42 12.8878L1130.96 15.6037C1129.88 15.9981 1129.35 17.2035 1129.79 18.2601L1171.35 118.683C1165.68 120.417 1160.16 122.486 1154.79 124.837L1105.4 29.9871C1104.87 28.9677 1103.6 28.6031 1102.61 29.176L1095.73 33.1495C1094.74 33.7224 1094.42 35.0097 1095.04 35.9696L1152.32 125.946C1146.86 128.461 1141.58 131.281 1136.49 134.399L1073.07 51.7519C1072.37 50.8441 1071.06 50.7027 1070.18 51.4394L1064.09 56.5439C1063.22 57.2805 1063.13 58.5976 1063.9 59.4458L1133.98 135.969C1128.81 139.265 1123.87 142.866 1119.16 146.751L1045 78.8072C1044.16 78.0333 1042.83 78.1226 1042.1 79.0007L1036.99 85.0874C1036.26 85.9654 1036.4 87.2825 1037.31 87.9745L1116.63 148.879C1111.87 152.964 1107.37 157.339 1103.15 161.975L1022.06 110.327C1021.09 109.71 1019.81 110.029 1019.24 111.019L1015.26 117.902C1014.69 118.892 1015.06 120.164 1016.08 120.692L1100.67 164.765C1098.98 166.715 1097.34 168.709 1095.75 170.748C1110.21 179.736 1123.72 190.116 1136.08 201.709L1136.07 201.717Z" fill="#F4F2E5"/>
<path d="M1818.9 264.905C1818.9 210.155 1774.38 165.621 1719.65 165.621C1689.18 165.621 1661.88 179.431 1643.65 201.114C1673.79 229.174 1697.2 264.377 1711.17 304.023C1712.51 304 1713.85 303.97 1715.19 303.97C1745.91 303.97 1775.36 309.358 1802.69 319.232C1812.94 303.613 1818.9 284.944 1818.9 264.905Z" fill="#F4F2E5"/>
<path d="M1641.6 199.194C1660.34 176.961 1688.37 162.808 1719.65 162.808C1775.94 162.808 1821.72 208.607 1821.72 264.905C1821.72 285.279 1815.72 304.276 1805.4 320.229C1821.49 326.249 1836.83 333.838 1851.2 342.797C1864.74 319.983 1872.51 293.352 1872.51 264.905C1872.51 253.112 1871.17 241.623 1868.64 230.595L1936.9 233.564C1938.05 233.616 1939 232.701 1939 231.555V223.608C1939 222.462 1938.05 221.547 1936.9 221.599L1867.14 224.635C1865.25 217.707 1862.9 210.973 1860.09 204.477L1934.86 194.618C1936 194.469 1936.78 193.405 1936.58 192.274L1935.21 184.446C1935 183.315 1933.91 182.586 1932.79 182.832L1857.82 199.44C1854.84 193.167 1851.45 187.125 1847.68 181.358L1926.1 156.61C1927.19 156.267 1927.77 155.077 1927.39 154.005L1924.67 146.542C1924.28 145.463 1923.07 144.935 1922.02 145.374L1844.93 177.296C1841.08 171.797 1836.88 166.558 1832.35 161.625L1910.88 120.715C1911.9 120.186 1912.26 118.914 1911.69 117.924L1907.72 111.041C1907.15 110.052 1905.86 109.732 1904.9 110.349L1829.37 158.455C1824.85 153.79 1820.03 149.414 1814.95 145.352L1889.65 87.9892C1890.56 87.2898 1890.7 85.9801 1889.96 85.1021L1884.86 79.0154C1884.12 78.1374 1882.81 78.0481 1881.96 78.822L1811.92 142.993C1806.9 139.19 1801.64 135.678 1796.16 132.508L1863.06 59.4606C1863.83 58.6198 1863.74 57.2953 1862.86 56.5586L1856.78 51.4541C1855.9 50.7175 1854.58 50.8588 1853.89 51.7666L1793.21 130.834C1787.85 127.88 1782.28 125.246 1776.55 122.947L1831.92 35.9769C1832.54 35.0096 1832.22 33.7298 1831.23 33.1568L1824.35 29.1833C1823.36 28.6104 1822.09 28.9824 1821.56 29.9944L1773.74 121.846C1768.15 119.732 1762.41 117.939 1756.53 116.481L1797.18 18.2675C1797.61 17.2108 1797.08 15.998 1796.01 15.611L1788.55 12.8951C1787.47 12.5007 1786.28 13.0885 1785.94 14.1824L1753.87 115.848C1748.17 114.546 1742.34 113.564 1736.41 112.916L1759.9 6.86047C1760.14 5.74432 1759.42 4.64306 1758.28 4.44216L1750.47 3.06558C1749.34 2.86468 1748.27 3.64598 1748.12 4.78444L1733.9 112.663C1729.21 112.232 1724.47 112.001 1719.67 112.001C1718.58 112.001 1717.5 112.024 1716.42 112.046L1721.19 2.11314C1721.25 0.967236 1720.33 0.0147937 1719.19 0.0147939L1711.24 0.0147953C1710.09 0.0147955 1709.18 0.967238 1709.23 2.11315L1714.01 112.12C1708.14 112.336 1702.35 112.872 1696.67 113.728L1682.31 4.7919C1682.16 3.65343 1681.1 2.87213 1679.97 3.07303L1672.15 4.44961C1671.02 4.65052 1670.29 5.74434 1670.53 6.86792L1694.28 114.114C1688.48 115.082 1682.79 116.376 1677.23 117.984L1644.49 14.1898C1644.15 13.096 1642.96 12.5156 1641.89 12.9025L1634.43 15.6185C1633.35 16.0129 1632.82 17.2183 1633.26 18.2749L1674.82 118.698C1669.15 120.432 1663.63 122.5 1658.26 124.852L1608.87 30.0019C1608.34 28.9825 1607.07 28.6179 1606.08 29.1908L1599.2 33.1643C1598.21 33.7372 1597.89 35.0245 1598.51 35.9844L1655.79 125.96C1650.33 128.476 1645.05 131.296 1639.96 134.413L1576.54 51.7667C1575.84 50.8589 1574.53 50.7175 1573.65 51.4542L1567.56 56.5587C1566.69 57.2953 1566.6 58.6124 1567.37 59.4606L1637.45 135.983C1632.28 139.28 1627.34 142.881 1622.63 146.765L1548.47 78.822C1547.63 78.0482 1546.3 78.1374 1545.57 79.0155L1540.46 85.1022C1539.73 85.9802 1539.87 87.2973 1540.78 87.9893L1620.1 148.894C1615.34 152.979 1610.84 157.354 1606.62 161.99L1525.53 110.342C1524.56 109.724 1523.28 110.044 1522.71 111.034L1518.73 117.917C1518.16 118.906 1518.53 120.179 1519.55 120.707L1604.14 164.78C1603 166.097 1601.89 167.436 1600.79 168.798C1615.4 177.586 1629.08 187.78 1641.62 199.202L1641.6 199.194Z" fill="#F4F2E5"/>
<path d="M450.556 164.349L455.332 274.356C449.462 274.572 443.675 275.107 437.992 275.963L423.634 167.027C423.486 165.889 422.422 165.108 421.291 165.308L413.465 166.685C412.334 166.886 411.605 167.98 411.851 169.103L435.596 276.35C429.794 277.317 424.103 278.612 418.546 280.219L385.807 176.425C385.465 175.331 384.275 174.751 383.203 175.138L375.742 177.854C374.663 178.248 374.135 179.454 374.574 180.51L416.136 280.934C410.467 282.667 404.948 284.736 399.577 287.087L350.189 192.237C349.661 191.218 348.389 190.853 347.4 191.426L340.519 195.4C339.529 195.973 339.209 197.26 339.827 198.22L397.107 288.196C391.647 290.711 386.365 293.531 381.277 296.649L317.852 214.002C317.153 213.094 315.843 212.953 314.966 213.69L308.881 218.794C308.003 219.531 307.914 220.848 308.687 221.696L378.762 298.219C373.6 301.515 368.653 305.117 363.944 309.001L289.785 241.057C288.937 240.284 287.62 240.373 286.884 241.251L281.78 247.338C281.044 248.216 281.185 249.525 282.093 250.225L361.415 311.129C356.661 315.214 352.153 319.589 347.935 324.225L266.843 272.577C265.876 271.96 264.596 272.28 264.023 273.269L260.051 280.152C259.478 281.142 259.85 282.414 260.862 282.943L345.458 327.015C341.962 331.048 338.681 335.267 335.616 339.658C350.286 348.326 364.018 358.409 376.635 369.719C395.031 342.775 425.978 325.051 460.985 325.051C493.896 325.051 523.205 340.714 541.884 364.972C554.813 354.019 568.828 344.316 583.758 336.049C580.612 331.807 577.249 327.745 573.686 323.853L652.212 282.943C653.231 282.414 653.596 281.142 653.023 280.152L649.05 273.269C648.478 272.28 647.191 271.96 646.231 272.577L570.703 320.683C566.18 316.018 561.36 311.642 556.279 307.58L630.981 250.217C631.889 249.518 632.03 248.208 631.294 247.33L626.19 241.243C625.454 240.365 624.137 240.276 623.289 241.05L553.251 305.221C548.23 301.418 542.971 297.906 537.495 294.736L604.387 221.689C605.16 220.84 605.071 219.523 604.193 218.787L598.108 213.682C597.23 212.945 595.914 213.087 595.222 213.995L534.542 293.062C529.179 290.108 523.614 287.474 517.886 285.175L573.255 198.205C573.872 197.238 573.552 195.958 572.563 195.385L565.682 191.411C564.692 190.838 563.42 191.21 562.892 192.222L515.067 284.074C509.48 281.96 503.737 280.167 497.86 278.709L538.507 180.495C538.946 179.439 538.41 178.226 537.339 177.839L529.878 175.123C528.799 174.729 527.616 175.317 527.274 176.41L495.205 278.076C489.499 276.774 483.674 275.792 477.745 275.144L501.23 169.088C501.476 167.972 500.747 166.871 499.616 166.67L491.798 165.294C490.667 165.093 489.603 165.874 489.454 167.012L475.231 274.891C470.545 274.46 465.798 274.229 461 274.229C459.914 274.229 458.836 274.251 457.749 274.274L462.525 164.341C462.577 163.195 461.662 162.243 460.517 162.243H452.572C451.426 162.243 450.511 163.195 450.563 164.341L450.556 164.349Z" fill="#F4F2E5"/>
<path d="M249.726 307.602C249.198 307.386 248.625 307.408 248.141 307.624C249.064 307.78 249.994 307.929 250.909 308.1L249.718 307.609L249.726 307.602Z" fill="#F4F2E5"/>
<path d="M664.933 307.624C664.449 307.408 663.884 307.386 663.348 307.602L662.158 308.093C663.08 307.929 664.003 307.78 664.925 307.617L664.933 307.624Z" fill="#F4F2E5"/>
<path d="M456.537 466.213C460.658 466.213 464.757 466.318 468.834 466.511C484.225 427.766 508.744 393.634 539.735 366.78C521.576 343.132 493.033 327.856 460.985 327.856C426.803 327.856 396.601 345.231 378.74 371.609C407.179 397.675 429.749 430.043 444.233 466.504C448.31 466.31 452.408 466.206 456.53 466.206L456.537 466.213Z" fill="#F4F2E5"/>
<path d="M1467.03 274.355C1461.16 274.571 1455.38 275.107 1449.69 275.963L1435.34 167.027C1435.19 165.889 1434.12 165.107 1432.99 165.308L1425.17 166.685C1424.04 166.886 1423.31 167.98 1423.56 169.103L1447.31 276.35C1441.5 277.317 1435.81 278.612 1430.26 280.219L1397.52 176.425C1397.17 175.331 1395.98 174.751 1394.91 175.138L1387.45 177.854C1386.37 178.248 1385.84 179.454 1386.28 180.51L1427.84 280.933C1422.18 282.667 1416.66 284.736 1411.29 287.087L1361.9 192.237C1361.37 191.218 1360.1 190.853 1359.11 191.426L1352.23 195.4C1351.24 195.972 1350.92 197.26 1351.54 198.22L1408.82 288.196C1403.36 290.711 1398.07 293.531 1392.99 296.649L1329.56 214.002C1328.86 213.094 1327.55 212.953 1326.67 213.689L1320.59 218.794C1319.71 219.531 1319.62 220.848 1320.4 221.696L1390.47 298.219C1385.31 301.515 1380.36 305.116 1375.65 309.001L1301.49 241.057C1300.65 240.283 1299.33 240.373 1298.59 241.251L1293.49 247.337C1292.75 248.215 1292.89 249.525 1293.8 250.225L1373.12 311.129C1368.37 315.214 1363.86 319.589 1359.64 324.225L1278.55 272.577C1277.58 271.96 1276.31 272.28 1275.73 273.269L1271.76 280.152C1271.19 281.142 1271.56 282.414 1272.57 282.942L1357.17 327.015C1353.14 331.666 1349.38 336.555 1345.93 341.674C1360.48 350.581 1374.08 360.901 1386.55 372.435C1404.69 343.973 1436.52 325.051 1472.69 325.051C1504.5 325.051 1532.95 339.68 1551.68 362.561C1564.79 351.779 1578.98 342.269 1594.07 334.211C1591.32 330.631 1588.43 327.179 1585.39 323.86L1663.91 282.95C1664.93 282.421 1665.3 281.149 1664.72 280.159L1660.75 273.277C1660.18 272.287 1658.89 271.967 1657.93 272.585L1582.4 320.69C1577.88 316.025 1573.06 311.65 1567.98 307.587L1642.68 250.224C1643.59 249.525 1643.73 248.215 1642.99 247.337L1637.89 241.251C1637.16 240.373 1635.84 240.283 1634.99 241.057L1564.95 305.228C1559.93 301.426 1554.67 297.914 1549.2 294.744L1616.09 221.696C1616.86 220.848 1616.77 219.53 1615.89 218.794L1609.81 213.689C1608.93 212.953 1607.62 213.094 1606.92 214.002L1546.24 293.07C1540.88 290.115 1535.32 287.481 1529.59 285.182L1584.96 198.212C1585.57 197.245 1585.25 195.965 1584.26 195.392L1577.38 191.419C1576.39 190.846 1575.12 191.218 1574.59 192.23L1526.77 284.081C1521.18 281.968 1515.44 280.174 1509.56 278.716L1550.21 180.503C1550.65 179.446 1550.11 178.233 1549.04 177.846L1541.58 175.13C1540.5 174.736 1539.32 175.324 1538.98 176.418L1506.91 278.083C1501.2 276.781 1495.38 275.799 1489.45 275.152L1512.93 169.096C1513.18 167.98 1512.45 166.878 1511.32 166.677L1503.5 165.301C1502.37 165.1 1501.3 165.881 1501.16 167.02L1486.93 274.899C1482.25 274.467 1477.5 274.236 1472.7 274.236C1471.62 274.236 1470.54 274.259 1469.45 274.281L1474.23 164.348C1474.28 163.202 1473.36 162.25 1472.22 162.25H1464.27C1463.13 162.25 1462.21 163.202 1462.26 164.348L1467.04 274.355H1467.03Z" fill="#F4F2E5"/>
<path d="M1259.01 308.324C1261.73 308.829 1264.44 309.38 1267.14 309.975L1261.43 307.609C1260.53 307.237 1259.54 307.565 1259.01 308.324Z" fill="#F4F2E5"/>
<path d="M1472.69 327.856C1437.32 327.856 1406.23 346.451 1388.64 374.384C1415.75 400.026 1437.3 431.494 1451.27 466.786C1456.88 466.421 1462.53 466.213 1468.23 466.213C1470.78 466.213 1473.3 466.258 1475.83 466.332C1491.69 426.478 1517.22 391.528 1549.52 364.361C1531.3 342.098 1503.62 327.856 1472.68 327.856H1472.69Z" fill="#F4F2E5"/>
<path d="M954.019 164.348L958.795 274.356C952.925 274.571 947.138 275.107 941.454 275.963L927.097 167.027C926.948 165.889 925.885 165.107 924.754 165.308L916.928 166.685C915.797 166.886 915.068 167.98 915.314 169.103L939.059 276.35C933.257 277.317 927.566 278.612 922.009 280.219L889.27 176.425C888.928 175.331 887.737 174.751 886.666 175.138L879.205 177.854C878.126 178.248 877.598 179.454 878.037 180.51L919.599 280.933C913.93 282.667 908.41 284.736 903.039 287.087L853.652 192.237C853.124 191.218 851.852 190.853 850.862 191.426L843.981 195.4C842.992 195.973 842.672 197.26 843.29 198.22L900.57 288.196C895.11 290.711 889.828 293.531 884.74 296.649L821.315 214.002C820.616 213.094 819.306 212.953 818.429 213.689L812.344 218.794C811.466 219.531 811.376 220.848 812.15 221.696L882.225 298.219C877.063 301.515 872.116 305.117 867.407 309.001L793.248 241.057C792.4 240.283 791.083 240.373 790.346 241.251L785.243 247.338C784.507 248.216 784.648 249.525 785.556 250.225L864.878 311.129C860.124 315.214 855.616 319.589 851.398 324.225L770.306 272.577C769.339 271.96 768.059 272.28 767.486 273.269L763.514 280.152C762.941 281.142 763.313 282.414 764.325 282.943L848.921 327.015C845.425 331.048 842.144 335.267 839.079 339.657C853.749 348.326 867.481 358.409 880.098 369.719C898.494 342.775 929.44 325.051 964.448 325.051C997.358 325.051 1026.67 340.714 1045.35 364.972C1058.28 354.018 1072.29 344.315 1087.22 336.049C1084.07 331.807 1080.71 327.744 1077.15 323.853L1155.67 282.942C1156.69 282.414 1157.06 281.142 1156.49 280.152L1152.51 273.269C1151.94 272.28 1150.65 271.96 1149.69 272.577L1074.17 320.683C1069.64 316.018 1064.82 311.642 1059.74 307.579L1134.44 250.217C1135.35 249.518 1135.49 248.208 1134.76 247.33L1129.65 241.243C1128.92 240.365 1127.6 240.276 1126.75 241.05L1056.71 305.221C1051.69 301.418 1046.43 297.906 1040.96 294.736L1107.85 221.688C1108.62 220.84 1108.53 219.523 1107.66 218.787L1101.57 213.682C1100.69 212.945 1099.38 213.087 1098.68 213.995L1038.01 293.062C1032.64 290.108 1027.08 287.474 1021.35 285.175L1076.72 198.205C1077.33 197.237 1077.02 195.958 1076.03 195.385L1069.14 191.411C1068.16 190.838 1066.88 191.21 1066.35 192.222L1018.53 284.073C1012.94 281.96 1007.2 280.167 1001.32 278.709L1041.97 180.495C1042.41 179.439 1041.87 178.226 1040.8 177.839L1033.34 175.123C1032.26 174.729 1031.08 175.316 1030.74 176.41L998.668 278.076C992.962 276.774 987.137 275.792 981.208 275.144L1004.69 169.088C1004.94 167.972 1004.21 166.871 1003.08 166.67L995.253 165.293C994.122 165.093 993.059 165.874 992.91 167.012L978.687 274.891C974 274.46 969.254 274.229 964.456 274.229C963.37 274.229 962.291 274.251 961.205 274.274L965.981 164.341C966.033 163.195 965.118 162.243 963.972 162.243H956.027C954.882 162.243 953.967 163.195 954.019 164.341V164.348Z" fill="#F4F2E5"/>
<path d="M751.604 307.624C752.527 307.78 753.456 307.929 754.371 308.1L753.181 307.609C752.653 307.393 752.08 307.416 751.597 307.632L751.604 307.624Z" fill="#F4F2E5"/>
<path d="M1168.4 307.624C1167.91 307.408 1167.35 307.386 1166.81 307.602L1165.62 308.093C1166.54 307.929 1167.47 307.78 1168.39 307.617L1168.4 307.624Z" fill="#F4F2E5"/>
<path d="M964.448 327.856C930.266 327.856 900.064 345.231 882.203 371.609C910.642 397.675 933.212 430.043 947.696 466.503C951.772 466.31 955.871 466.206 959.992 466.206C964.114 466.206 968.213 466.31 972.289 466.503C987.68 427.758 1012.2 393.627 1043.19 366.772C1025.03 343.125 996.488 327.849 964.441 327.849L964.448 327.856Z" fill="#F4F2E5"/>
<path d="M56.3941 599.02C56.3942 625.829 63.2975 651.017 75.4156 672.923C90.0481 664.403 105.596 657.275 121.872 651.739C112.551 636.344 107.18 618.299 107.18 599.02C107.18 542.721 152.967 496.922 209.25 496.922C239.549 496.922 266.798 510.197 285.507 531.232C298.206 519.945 312.027 509.884 326.786 501.26C325.217 499.378 323.61 497.532 321.951 495.724L400.477 454.814C401.496 454.286 401.86 453.013 401.288 452.023L397.315 445.141C396.742 444.151 395.455 443.831 394.496 444.449L318.968 492.554C314.445 487.889 309.625 483.514 304.544 479.451L379.246 422.089C380.153 421.389 380.295 420.079 379.558 419.201L374.455 413.115C373.719 412.237 372.402 412.147 371.554 412.921L301.516 477.092C296.495 473.282 291.235 469.778 285.76 466.608L352.652 393.56C353.425 392.719 353.336 391.395 352.458 390.658L346.373 385.553C345.495 384.817 344.179 384.958 343.487 385.866L282.807 464.934C277.443 461.979 271.879 459.345 266.151 457.046L321.519 370.076C322.137 369.109 321.817 367.829 320.828 367.256L313.947 363.283C312.957 362.71 311.685 363.082 311.157 364.094L263.332 455.945C257.745 453.832 252.002 452.038 246.125 450.58L286.772 352.367C287.211 351.31 286.675 350.097 285.604 349.71L278.143 346.994C277.064 346.6 275.881 347.188 275.539 348.282L243.47 449.947C237.764 448.645 231.939 447.663 226.01 447.016L249.495 340.96C249.741 339.844 249.012 338.742 247.881 338.541L240.063 337.165C238.932 336.964 237.868 337.745 237.719 338.884L223.496 446.763C218.809 446.331 214.063 446.1 209.265 446.1C208.179 446.1 207.1 446.123 206.014 446.145L210.79 336.212C210.842 335.067 209.927 334.114 208.782 334.114H200.837C199.691 334.114 198.776 335.067 198.828 336.212L203.604 446.22C197.735 446.435 191.947 446.971 186.264 447.827L171.907 338.891C171.758 337.753 170.694 336.971 169.563 337.172L161.745 338.549C160.614 338.75 159.885 339.844 160.131 340.967L183.876 448.214C178.074 449.181 172.383 450.476 166.826 452.083L134.087 348.289C133.745 347.195 132.554 346.615 131.483 347.002L124.022 349.718C122.943 350.112 122.415 351.318 122.854 352.374L164.416 452.797C158.747 454.531 153.227 456.6 147.856 458.951L98.469 364.101C97.9408 363.082 96.6688 362.717 95.6794 363.29L88.7983 367.264C87.8089 367.837 87.489 369.124 88.1065 370.084L145.387 460.06C139.926 462.575 134.645 465.395 129.557 468.513L66.1317 385.866C65.4325 384.958 64.1232 384.817 63.2454 385.553L57.1603 390.658C56.2825 391.395 56.1933 392.712 56.9669 393.56L127.042 470.083C121.879 473.379 116.933 476.98 112.224 480.865L38.0645 412.921C37.2239 412.147 35.8997 412.237 35.1633 413.115L30.0601 419.201C29.3237 420.079 29.465 421.389 30.3726 422.089L109.694 482.993C104.941 487.078 100.433 491.453 96.215 496.089L15.1226 444.441C14.1556 443.824 12.8761 444.144 12.3033 445.133L8.33086 452.016C7.75806 453.006 8.13001 454.278 9.14171 454.806L93.7378 498.879C89.5199 503.746 85.607 508.887 82.0214 514.26L-2.00188 479.466C-3.05822 479.027 -4.27077 479.562 -4.6576 480.634L-7.37282 488.097C-7.76709 489.176 -7.17941 490.359 -6.08588 490.702L79.7377 517.787C76.2116 523.397 73.0426 529.246 70.2604 535.318L-12.781 516.924C-13.8968 516.678 -14.9978 517.407 -15.1986 518.538L-16.5748 526.359C-16.7757 527.49 -15.9946 528.554 -14.8564 528.703L68.3411 539.678C65.7003 545.951 63.4686 552.439 61.6758 559.106L-16.8873 555.691C-18.0329 555.639 -18.9851 556.554 -18.9851 557.7L-18.9851 565.647C-18.9851 566.793 -18.0329 567.708 -16.8873 567.656L60.3666 564.3C57.7778 575.447 56.409 587.062 56.409 598.997L56.3941 599.02Z" fill="#F4F2E5"/>
<path d="M213.558 638.248C227.885 597.546 252.129 561.517 283.41 533.093C265.214 512.637 238.716 499.727 209.258 499.727C154.522 499.727 109.999 544.269 109.999 599.012C109.999 617.987 115.356 635.733 124.625 650.831C149.865 642.564 176.809 638.077 204.809 638.077C207.74 638.077 210.656 638.144 213.565 638.241L213.558 638.248Z" fill="#F4F2E5"/>
<path d="M512.597 454.821L597.193 498.894C595.505 500.844 593.861 502.838 592.269 504.877C606.73 513.865 620.239 524.245 632.603 535.838C651.312 512.154 680.272 496.93 712.721 496.93C743.02 496.93 770.269 510.204 788.978 531.24C801.676 519.952 815.498 509.892 830.257 501.268C828.687 499.385 827.08 497.54 825.421 495.732L903.947 454.821C904.966 454.293 905.331 453.02 904.758 452.031L900.786 445.148C900.213 444.158 898.926 443.838 897.966 444.456L822.438 492.562C817.915 487.896 813.095 483.521 808.014 479.458L882.716 422.096C883.624 421.396 883.765 420.087 883.029 419.209L877.926 413.122C877.189 412.244 875.872 412.155 875.024 412.929L804.986 477.099C799.965 473.29 794.706 469.785 789.231 466.615L856.122 393.567C856.896 392.726 856.806 391.402 855.929 390.665L849.843 385.561C848.966 384.824 847.649 384.965 846.957 385.873L786.277 464.941C780.914 461.987 775.349 459.353 769.621 457.053L824.99 370.084C825.607 369.116 825.287 367.836 824.298 367.263L817.417 363.29C816.427 362.717 815.155 363.089 814.627 364.101L766.802 455.952C761.215 453.839 755.472 452.046 749.596 450.587L790.242 352.374C790.681 351.317 790.146 350.105 789.074 349.718L781.613 347.002C780.534 346.607 779.352 347.195 779.009 348.289L746.94 449.955C741.234 448.653 735.41 447.67 729.481 447.023L752.966 340.967C753.211 339.851 752.482 338.75 751.351 338.549L743.533 337.172C742.402 336.971 741.338 337.753 741.19 338.891L726.966 446.77C722.28 446.339 717.534 446.108 712.736 446.108C711.65 446.108 710.571 446.13 709.485 446.152L714.261 336.22C714.313 335.074 713.398 334.121 712.252 334.121H704.307C703.162 334.121 702.247 335.074 702.299 336.22L707.074 446.227C701.205 446.443 695.418 446.978 689.734 447.834L675.377 338.898C675.228 337.76 674.164 336.979 673.034 337.18L665.215 338.556C664.085 338.757 663.356 339.851 663.601 340.975L687.346 448.221C681.544 449.188 675.853 450.483 670.296 452.09L637.557 348.296C637.215 347.203 636.025 346.622 634.954 347.009L627.492 349.725C626.414 350.12 625.885 351.325 626.324 352.382L667.886 452.805C662.217 454.538 656.698 456.607 651.327 458.958L601.939 364.108C601.411 363.089 600.139 362.724 599.15 363.297L592.269 367.271C591.279 367.844 590.959 369.131 591.577 370.091L648.857 460.067C643.397 462.582 638.115 465.402 633.027 468.52L569.602 385.873C568.903 384.965 567.594 384.824 566.716 385.561L560.631 390.665C559.753 391.402 559.664 392.719 560.437 393.567L630.512 470.09C625.35 473.386 620.403 476.988 615.694 480.872L541.535 412.929C540.694 412.155 539.37 412.244 538.634 413.122L533.53 419.209C532.794 420.087 532.935 421.396 533.843 422.096L613.165 483C608.411 487.085 603.903 491.46 599.685 496.096L518.593 444.449C517.626 443.831 516.346 444.151 515.774 445.141L511.801 452.023C511.228 453.013 511.6 454.285 512.612 454.814L512.597 454.821Z" fill="#F4F2E5"/>
<path d="M717.02 638.248C731.348 597.546 755.592 561.517 786.873 533.093C768.677 512.637 742.179 499.727 712.721 499.727C681.075 499.727 652.844 514.617 634.656 537.758C663.527 565.416 685.963 599.741 699.517 638.248C702.425 638.151 705.341 638.085 708.272 638.085C711.203 638.085 714.119 638.151 717.028 638.248H717.02Z" fill="#F4F2E5"/>
<path d="M1378.48 412.943L1308.44 477.114C1303.42 473.304 1298.16 469.8 1292.69 466.63L1359.58 393.582C1360.35 392.741 1360.26 391.417 1359.38 390.68L1353.3 385.576C1352.42 384.839 1351.1 384.98 1350.41 385.888L1289.73 464.956C1284.37 462.002 1278.81 459.367 1273.08 457.068L1328.45 370.098C1329.06 369.131 1328.74 367.851 1327.75 367.278L1320.87 363.305C1319.88 362.732 1318.61 363.104 1318.08 364.116L1270.26 455.967C1264.67 453.854 1258.93 452.06 1253.05 450.602L1293.7 352.389C1294.14 351.332 1293.6 350.119 1292.53 349.732L1285.07 347.016C1283.99 346.622 1282.81 347.21 1282.46 348.304L1250.4 449.97C1244.69 448.667 1238.87 447.685 1232.94 447.038L1256.42 340.982C1256.67 339.866 1255.94 338.764 1254.81 338.564L1246.99 337.187C1245.86 336.986 1244.79 337.767 1244.65 338.906L1230.42 446.785C1225.74 446.353 1220.99 446.123 1216.19 446.123C1215.11 446.123 1214.03 446.145 1212.94 446.167L1217.72 336.235C1217.77 335.089 1216.85 334.136 1215.71 334.136H1207.76C1206.62 334.136 1205.7 335.089 1205.75 336.235L1210.53 446.242C1204.66 446.457 1198.87 446.993 1193.19 447.849L1178.83 338.913C1178.68 337.775 1177.62 336.994 1176.49 337.194L1168.67 338.571C1167.54 338.772 1166.81 339.866 1167.06 340.989L1190.8 448.236C1185 449.203 1179.31 450.498 1173.75 452.105L1141.01 348.311C1140.67 347.217 1139.48 346.637 1138.41 347.024L1130.95 349.74C1129.87 350.134 1129.34 351.34 1129.78 352.396L1171.34 452.819C1165.67 454.553 1160.15 456.622 1154.78 458.973L1105.39 364.123C1104.87 363.104 1103.59 362.739 1102.61 363.312L1095.72 367.286C1094.73 367.859 1094.42 369.146 1095.03 370.106L1152.31 460.082C1146.85 462.597 1141.57 465.417 1136.48 468.535L1073.06 385.888C1072.36 384.98 1071.05 384.839 1070.17 385.576L1064.09 390.68C1063.21 391.417 1063.12 392.734 1063.89 393.582L1133.97 470.105C1128.81 473.401 1123.86 477.003 1119.15 480.887L1044.99 412.943C1044.15 412.17 1042.83 412.259 1042.09 413.137L1036.99 419.224C1036.25 420.102 1036.39 421.411 1037.3 422.111L1116.62 483.015C1111.87 487.1 1107.36 491.475 1103.14 496.111L1022.05 444.463C1021.08 443.846 1019.8 444.166 1019.23 445.155L1015.26 452.038C1014.68 453.028 1015.06 454.3 1016.07 454.829L1100.66 498.901C1098.98 500.851 1097.33 502.845 1095.74 504.884C1110.2 513.873 1123.71 524.253 1136.07 535.846C1154.78 512.161 1183.74 496.937 1216.19 496.937C1248.64 496.937 1275.79 511.231 1294.53 533.658C1307.04 522.214 1320.69 511.997 1335.28 503.18C1333.23 500.635 1331.1 498.15 1328.89 495.739L1407.42 454.828C1408.44 454.3 1408.8 453.028 1408.23 452.038L1404.26 445.155C1403.68 444.166 1402.4 443.846 1401.44 444.463L1325.91 492.569C1321.39 487.904 1316.57 483.528 1311.48 479.466L1386.19 422.103C1387.09 421.404 1387.24 420.094 1386.5 419.216L1381.4 413.129C1380.66 412.251 1379.34 412.162 1378.49 412.936L1378.48 412.943Z" fill="#F4F2E5"/>
<path d="M1216.18 499.735C1184.54 499.735 1156.31 514.624 1138.12 537.765C1166.99 565.423 1189.43 599.749 1202.98 638.256C1205.89 638.159 1208.8 638.092 1211.74 638.092C1216.25 638.092 1220.74 638.211 1225.2 638.442C1239.11 598.826 1262.42 563.645 1292.47 535.57C1274.24 513.694 1246.82 499.742 1216.19 499.742L1216.18 499.735Z" fill="#F4F2E5"/>
<path d="M1936.9 555.713L1867.14 558.749C1865.25 551.821 1862.9 545.087 1860.09 538.591L1934.86 528.732C1936 528.583 1936.78 527.519 1936.58 526.388L1935.21 518.568C1935 517.437 1933.91 516.707 1932.79 516.953L1857.82 533.561C1854.84 527.288 1851.45 521.246 1847.68 515.48L1926.1 490.731C1927.19 490.389 1927.77 489.198 1927.39 488.127L1924.67 480.663C1924.28 479.584 1923.07 479.056 1922.02 479.495L1844.93 511.417C1841.08 505.918 1836.88 500.68 1832.35 495.746L1910.88 454.836C1911.9 454.308 1912.26 453.035 1911.69 452.045L1907.72 445.163C1907.15 444.173 1905.86 443.853 1904.9 444.471L1829.37 492.576C1824.85 487.911 1820.03 483.536 1814.95 479.473L1889.65 422.111C1890.56 421.411 1890.7 420.101 1889.96 419.223L1884.86 413.137C1884.12 412.259 1882.81 412.169 1881.96 412.943L1811.92 477.114C1806.9 473.304 1801.64 469.8 1796.16 466.63L1863.06 393.582C1863.83 392.741 1863.74 391.417 1862.86 390.68L1856.78 385.575C1855.9 384.839 1854.58 384.98 1853.89 385.888L1793.21 464.956C1787.85 462.002 1782.28 459.367 1776.55 457.068L1831.92 370.098C1832.54 369.131 1832.22 367.851 1831.23 367.278L1824.35 363.305C1823.36 362.732 1822.09 363.104 1821.56 364.116L1773.74 455.967C1768.15 453.854 1762.41 452.06 1756.53 450.602L1797.18 352.389C1797.61 351.332 1797.08 350.119 1796.01 349.732L1788.55 347.016C1787.47 346.622 1786.28 347.21 1785.94 348.304L1753.87 449.97C1748.17 448.667 1742.34 447.685 1736.41 447.038L1759.9 340.982C1760.14 339.866 1759.42 338.764 1758.28 338.563L1750.47 337.187C1749.34 336.986 1748.27 337.767 1748.12 338.906L1733.9 446.785C1729.21 446.353 1724.47 446.123 1719.67 446.123C1718.58 446.123 1717.5 446.145 1716.42 446.167L1721.19 336.234C1721.25 335.089 1720.33 334.136 1719.19 334.136H1711.24C1710.09 334.136 1709.18 335.089 1709.23 336.234L1714.01 446.242C1708.14 446.457 1702.35 446.993 1696.67 447.849L1682.31 338.913C1682.16 337.775 1681.1 336.993 1679.97 337.194L1672.15 338.571C1671.02 338.772 1670.29 339.866 1670.53 340.989L1694.28 448.236C1688.48 449.203 1682.79 450.498 1677.23 452.105L1644.49 348.311C1644.15 347.217 1642.96 346.637 1641.89 347.024L1634.43 349.74C1633.35 350.134 1632.82 351.34 1633.26 352.396L1674.82 452.819C1669.15 454.553 1663.63 456.622 1658.26 458.973L1608.87 364.123C1608.34 363.104 1607.07 362.739 1606.08 363.312L1599.2 367.286C1598.21 367.859 1597.89 369.146 1598.51 370.106L1655.79 460.082C1650.33 462.597 1645.05 465.417 1639.96 468.535L1576.54 385.888C1575.84 384.98 1574.53 384.839 1573.65 385.575L1567.56 390.68C1566.69 391.417 1566.6 392.734 1567.37 393.582L1637.45 470.105C1632.28 473.401 1627.34 477.003 1622.63 480.887L1548.47 412.943C1547.63 412.169 1546.3 412.259 1545.57 413.137L1540.46 419.223C1539.73 420.102 1539.87 421.411 1540.78 422.111L1620.1 483.015C1615.34 487.1 1610.84 491.475 1606.62 496.111L1525.53 444.463C1524.56 443.846 1523.28 444.166 1522.71 445.155L1518.73 452.038C1518.16 453.028 1518.53 454.3 1519.55 454.828L1604.14 498.901C1603 500.218 1601.89 501.558 1600.79 502.919C1615.4 511.707 1629.08 521.901 1641.62 533.323C1660.36 511.09 1688.4 496.937 1719.68 496.937C1775.96 496.937 1821.75 542.736 1821.75 599.034C1821.75 619.408 1815.74 638.404 1805.43 654.358C1821.52 660.377 1836.85 667.967 1851.23 676.926C1864.76 654.112 1872.53 627.481 1872.53 599.034C1872.53 587.24 1871.19 575.751 1868.66 564.724L1936.92 567.693C1938.07 567.745 1939.02 566.83 1939.02 565.684V557.737C1939.02 556.591 1938.07 555.676 1936.92 555.728L1936.9 555.713Z" fill="#F4F2E5"/>
<path d="M1719.65 499.735C1689.18 499.735 1661.88 513.545 1643.65 535.228C1673.79 563.288 1697.2 598.491 1711.17 638.136C1712.51 638.114 1713.85 638.084 1715.19 638.084C1745.91 638.084 1775.36 643.472 1802.69 653.346C1812.94 637.727 1818.9 619.058 1818.9 599.019C1818.9 544.269 1774.38 499.735 1719.65 499.735Z" fill="#F4F2E5"/>
<path d="M249.726 641.716C249.198 641.5 248.625 641.522 248.141 641.738C249.064 641.894 249.994 642.043 250.916 642.214L249.726 641.723V641.716Z" fill="#F4F2E5"/>
<path d="M663.348 641.716L662.158 642.207C663.08 642.043 664.003 641.894 664.925 641.731C664.442 641.515 663.876 641.493 663.341 641.708L663.348 641.716Z" fill="#F4F2E5"/>
<path d="M456.537 800.32C460.658 800.32 464.757 800.424 468.834 800.617C484.225 761.872 508.744 727.741 539.735 700.886C521.576 677.239 493.033 661.963 460.986 661.963C426.803 661.963 396.601 679.337 378.74 705.715C407.179 731.781 429.749 764.149 444.233 800.61C448.31 800.417 452.408 800.312 456.53 800.312L456.537 800.32Z" fill="#F4F2E5"/>
<path d="M583.759 670.155C580.612 665.914 577.249 661.851 573.686 657.959L652.212 617.049C653.231 616.521 653.596 615.248 653.023 614.259L649.05 607.376C648.478 606.386 647.191 606.066 646.231 606.684L570.703 654.79C566.18 650.124 561.36 645.749 556.279 641.686L630.981 584.324C631.889 583.624 632.03 582.315 631.294 581.437L626.19 575.35C625.454 574.472 624.137 574.383 623.289 575.156L553.251 639.327C548.23 635.525 542.971 632.013 537.495 628.843L604.387 555.795C605.16 554.954 605.071 553.63 604.193 552.893L598.108 547.789C597.23 547.052 595.914 547.193 595.222 548.101L534.542 627.169C529.179 624.215 523.614 621.581 517.886 619.281L573.255 532.311C573.872 531.344 573.552 530.064 572.563 529.491L565.682 525.518C564.692 524.945 563.42 525.317 562.892 526.329L515.067 618.18C509.48 616.067 503.737 614.274 497.861 612.815L538.507 514.602C538.946 513.545 538.41 512.332 537.339 511.945L529.878 509.23C528.799 508.835 527.616 509.423 527.274 510.517L495.205 612.183C489.499 610.88 483.674 609.898 477.746 609.251L501.23 503.195C501.476 502.079 500.747 500.978 499.616 500.777L491.798 499.4C490.667 499.199 489.603 499.98 489.454 501.119L475.231 608.998C470.545 608.566 465.799 608.336 461 608.336C459.914 608.336 458.836 608.358 457.75 608.38L462.525 498.448C462.577 497.302 461.662 496.349 460.517 496.349H452.572C451.426 496.349 450.511 497.302 450.563 498.448L455.339 608.455C449.47 608.671 443.682 609.206 437.999 610.062L423.642 501.126C423.493 499.988 422.429 499.207 421.299 499.408L413.473 500.784C412.342 500.985 411.613 502.079 411.858 503.202L435.604 610.449C429.801 611.416 424.111 612.711 418.554 614.318L385.815 510.524C385.472 509.43 384.282 508.85 383.211 509.237L375.75 511.953C374.671 512.347 374.143 513.553 374.582 514.609L416.143 615.033C410.475 616.774 404.955 618.835 399.584 621.186L350.197 526.336C349.669 525.317 348.397 524.952 347.407 525.525L340.526 529.499C339.537 530.072 339.217 531.359 339.834 532.319L397.114 622.295C391.654 624.81 386.373 627.63 381.284 630.748L317.859 548.101C317.16 547.193 315.851 547.052 314.973 547.789L308.888 552.893C308.01 553.63 307.921 554.947 308.695 555.795L378.77 632.318C373.607 635.614 368.66 639.216 363.951 643.1L289.792 575.156C288.944 574.383 287.628 574.472 286.891 575.35L281.788 581.437C281.051 582.315 281.193 583.624 282.1 584.324L361.422 645.228C356.669 649.313 352.161 653.688 347.943 658.324L266.85 606.676C265.883 606.059 264.604 606.379 264.031 607.368L260.059 614.251C259.486 615.241 259.858 616.513 260.869 617.042L345.466 661.114C341.969 665.147 338.689 669.366 335.624 673.757C350.293 682.425 364.026 692.508 376.642 703.818C395.039 676.874 425.985 659.15 460.993 659.15C493.896 659.15 523.213 674.813 541.892 699.071C554.821 688.118 568.836 678.415 583.766 670.148L583.759 670.155Z" fill="#F4F2E5"/>
<path d="M1432.99 499.422L1425.17 500.799C1424.04 501 1423.31 502.094 1423.56 503.217L1447.31 610.464C1441.5 611.431 1435.81 612.726 1430.26 614.333L1397.52 510.539C1397.17 509.445 1395.98 508.865 1394.91 509.252L1387.45 511.968C1386.37 512.362 1385.84 513.567 1386.28 514.624L1427.84 615.047C1422.18 616.788 1416.66 618.85 1411.29 621.201L1361.9 526.351C1361.37 525.332 1360.1 524.967 1359.11 525.54L1352.23 529.513C1351.24 530.086 1350.92 531.374 1351.54 532.334L1408.82 622.31C1403.36 624.825 1398.07 627.645 1392.99 630.763L1329.56 548.116C1328.86 547.208 1327.55 547.067 1326.67 547.803L1320.59 552.908C1319.71 553.644 1319.62 554.962 1320.4 555.81L1390.47 632.333C1385.31 635.629 1380.36 639.23 1375.65 643.115L1301.49 575.171C1300.65 574.397 1299.33 574.487 1298.59 575.365L1293.49 581.451C1292.75 582.329 1292.89 583.639 1293.8 584.338L1373.12 645.243C1368.37 649.328 1363.86 653.703 1359.64 658.339L1278.55 606.691C1277.58 606.073 1276.31 606.393 1275.73 607.383L1271.76 614.266C1271.19 615.256 1271.56 616.528 1272.57 617.056L1357.17 661.129C1353.14 665.78 1349.38 670.668 1345.93 675.788C1360.48 684.695 1374.08 695.015 1386.55 706.549C1404.69 678.087 1436.52 659.165 1472.69 659.165C1504.5 659.165 1532.95 673.794 1551.68 696.674C1564.79 685.893 1578.98 676.383 1594.07 668.324C1591.32 664.745 1588.43 661.293 1585.39 657.974L1663.91 617.064C1664.93 616.535 1665.3 615.263 1664.72 614.273L1660.75 607.39C1660.18 606.401 1658.89 606.081 1657.93 606.698L1582.4 654.804C1577.88 650.139 1573.06 645.763 1567.98 641.701L1642.68 584.338C1643.59 583.639 1643.73 582.329 1642.99 581.451L1637.89 575.365C1637.16 574.487 1635.84 574.397 1634.99 575.171L1564.95 639.342C1559.93 635.54 1554.67 632.027 1549.2 628.858L1616.09 555.81C1616.86 554.969 1616.77 553.644 1615.89 552.908L1609.81 547.803C1608.93 547.067 1607.62 547.208 1606.92 548.116L1546.24 627.183C1540.88 624.229 1535.32 621.595 1529.59 619.296L1584.96 532.326C1585.57 531.359 1585.25 530.079 1584.26 529.506L1577.38 525.533C1576.39 524.96 1575.12 525.332 1574.59 526.344L1526.77 618.195C1521.18 616.082 1515.44 614.288 1509.56 612.83L1550.21 514.617C1550.65 513.56 1550.11 512.347 1549.04 511.96L1541.58 509.244C1540.5 508.85 1539.32 509.438 1538.98 510.532L1506.91 612.197C1501.2 610.895 1495.38 609.913 1489.45 609.266L1512.93 503.21C1513.18 502.094 1512.45 500.992 1511.32 500.791L1503.5 499.415C1502.37 499.214 1501.3 499.995 1501.16 501.134L1486.93 609.013C1482.25 608.581 1477.5 608.35 1472.7 608.35C1471.62 608.35 1470.54 608.373 1469.45 608.395L1474.23 498.462C1474.28 497.316 1473.36 496.364 1472.22 496.364H1464.27C1463.13 496.364 1462.21 497.316 1462.26 498.462L1467.04 608.469C1461.17 608.685 1455.38 609.221 1449.7 610.077L1435.34 501.141C1435.19 500.003 1434.13 499.221 1433 499.422H1432.99Z" fill="#F4F2E5"/>
<path d="M1259.01 642.43C1261.73 642.936 1264.44 643.487 1267.14 644.082L1261.43 641.716C1260.53 641.344 1259.54 641.671 1259.01 642.43Z" fill="#F4F2E5"/>
<path d="M1472.69 661.97C1437.32 661.97 1406.23 680.565 1388.64 708.491C1415.75 734.132 1437.3 765.6 1451.27 800.893C1456.88 800.528 1462.53 800.32 1468.23 800.32C1470.78 800.32 1473.3 800.364 1475.83 800.439C1491.69 760.585 1517.22 725.635 1549.52 698.468C1531.3 676.204 1503.62 661.962 1472.68 661.962L1472.69 661.97Z" fill="#F4F2E5"/>
<path d="M927.097 501.141C926.948 500.003 925.885 499.221 924.754 499.422L916.928 500.799C915.797 501 915.068 502.094 915.314 503.217L939.059 610.464C933.257 611.431 927.566 612.726 922.009 614.333L889.27 510.539C888.928 509.445 887.738 508.865 886.666 509.252L879.205 511.968C878.126 512.362 877.598 513.568 878.037 514.624L919.599 615.047C913.93 616.789 908.41 618.85 903.04 621.201L853.652 526.351C853.124 525.332 851.852 524.967 850.862 525.54L843.981 529.513C842.992 530.086 842.672 531.374 843.29 532.334L900.57 622.31C895.11 624.825 889.828 627.645 884.74 630.763L821.315 548.116C820.616 547.208 819.306 547.067 818.429 547.803L812.344 552.908C811.466 553.645 811.376 554.962 812.15 555.81L882.225 632.333C877.063 635.629 872.116 639.23 867.407 643.115L793.248 575.171C792.4 574.397 791.083 574.487 790.346 575.365L785.243 581.451C784.507 582.329 784.648 583.639 785.556 584.339L864.878 645.243C860.124 649.328 855.616 653.703 851.398 658.339L770.306 606.691C769.339 606.074 768.059 606.394 767.486 607.383L763.514 614.266C762.941 615.256 763.313 616.528 764.325 617.056L848.921 661.129C845.425 665.162 842.144 669.381 839.079 673.771C853.749 682.44 867.481 692.523 880.098 703.833C898.494 676.889 929.44 659.165 964.448 659.165C997.351 659.165 1026.67 674.828 1045.35 699.085C1058.28 688.132 1072.29 678.429 1087.22 670.162C1084.07 665.921 1080.71 661.858 1077.15 657.967L1155.67 617.056C1156.69 616.528 1157.06 615.256 1156.49 614.266L1152.51 607.383C1151.94 606.393 1150.65 606.073 1149.69 606.691L1074.17 654.797C1069.64 650.131 1064.82 645.756 1059.74 641.693L1134.44 584.331C1135.35 583.632 1135.49 582.322 1134.76 581.444L1129.65 575.357C1128.92 574.479 1127.6 574.39 1126.75 575.164L1056.71 639.335C1051.69 635.532 1046.43 632.02 1040.96 628.85L1107.85 555.802C1108.62 554.962 1108.53 553.637 1107.66 552.9L1101.57 547.796C1100.69 547.059 1099.38 547.201 1098.68 548.108L1038.01 627.176C1032.64 624.222 1027.08 621.588 1021.35 619.289L1076.72 532.319C1077.33 531.351 1077.02 530.072 1076.03 529.499L1069.14 525.525C1068.16 524.952 1066.88 525.324 1066.35 526.336L1018.53 618.187C1012.94 616.074 1007.2 614.281 1001.32 612.822L1041.97 514.609C1042.41 513.553 1041.87 512.34 1040.8 511.953L1033.34 509.237C1032.26 508.842 1031.08 509.43 1030.74 510.524L998.668 612.19C992.962 610.888 987.137 609.906 981.208 609.258L1004.69 503.202C1004.94 502.086 1004.21 500.985 1003.08 500.784L995.253 499.407C994.122 499.206 993.059 499.988 992.91 501.126L978.687 609.005C974 608.574 969.254 608.343 964.456 608.343C963.37 608.343 962.291 608.365 961.205 608.388L965.981 498.455C966.033 497.309 965.118 496.357 963.972 496.357H956.027C954.882 496.357 953.967 497.309 954.019 498.455L958.795 608.462C952.925 608.678 947.138 609.214 941.454 610.069L927.097 501.134V501.141Z" fill="#F4F2E5"/>
<path d="M753.189 641.716C752.661 641.5 752.088 641.522 751.604 641.738C752.527 641.894 753.457 642.043 754.379 642.214L753.189 641.723V641.716Z" fill="#F4F2E5"/>
<path d="M1166.81 641.716L1165.62 642.207C1166.54 642.043 1167.47 641.894 1168.4 641.731C1167.91 641.515 1167.35 641.492 1166.81 641.708V641.716Z" fill="#F4F2E5"/>
<path d="M964.448 661.97C930.266 661.97 900.064 679.345 882.203 705.723C910.642 731.788 933.212 764.157 947.696 800.617C951.772 800.424 955.871 800.32 959.993 800.32C964.114 800.32 968.213 800.424 972.289 800.617C987.68 761.872 1012.2 727.741 1043.19 700.886C1025.03 677.239 996.488 661.963 964.441 661.963L964.448 661.97Z" fill="#F4F2E5"/>
<path d="M56.3942 933.126C56.3942 962.927 64.9267 990.734 79.6708 1014.25C94.6529 1005.9 110.55 999.001 127.176 993.748C114.619 976.782 107.18 955.806 107.18 933.126C107.18 876.828 152.967 831.029 209.25 831.029C239.549 831.029 266.798 844.303 285.507 865.339C298.206 854.051 312.027 843.991 326.786 835.367C325.217 833.484 323.61 831.639 321.951 829.831L400.477 788.92C401.496 788.392 401.861 787.12 401.288 786.13L397.315 779.247C396.742 778.257 395.456 777.937 394.496 778.555L318.968 826.661C314.445 821.995 309.625 817.62 304.544 813.557L379.246 756.195C380.154 755.495 380.295 754.186 379.558 753.308L374.455 747.221C373.719 746.343 372.402 746.254 371.554 747.028L301.516 811.199C296.495 807.389 291.235 803.884 285.76 800.714L352.652 727.666C353.425 726.818 353.336 725.501 352.458 724.764L346.373 719.66C345.495 718.923 344.179 719.065 343.487 719.972L282.807 799.04C277.444 796.086 271.879 793.452 266.151 791.153L321.52 704.183C322.137 703.215 321.817 701.935 320.828 701.363L313.947 697.389C312.957 696.816 311.685 697.188 311.157 698.2L263.332 790.051C257.745 787.938 252.002 786.145 246.125 784.686L286.772 686.473C287.211 685.417 286.675 684.204 285.604 683.817L278.143 681.101C277.064 680.706 275.881 681.294 275.539 682.388L243.47 784.054C237.764 782.752 231.939 781.77 226.01 781.122L249.495 675.066C249.741 673.95 249.012 672.849 247.881 672.648L240.063 671.271C238.932 671.07 237.868 671.852 237.719 672.99L223.496 780.869C218.809 780.438 214.063 780.207 209.265 780.207C208.179 780.207 207.101 780.229 206.014 780.252L210.79 670.319C210.842 669.173 209.927 668.221 208.782 668.221H200.837C199.691 668.221 198.776 669.173 198.828 670.319L203.604 780.326C197.735 780.542 191.947 781.078 186.264 781.933L171.907 672.998C171.758 671.859 170.694 671.078 169.563 671.279L161.745 672.655C160.614 672.856 159.885 673.95 160.131 675.074L183.876 782.32C178.074 783.288 172.383 784.582 166.826 786.19L134.087 682.396C133.745 681.302 132.554 680.721 131.483 681.108L124.022 683.824C122.943 684.219 122.415 685.424 122.854 686.481L164.416 786.904C158.747 788.638 153.227 790.706 147.856 793.058L98.469 698.208C97.9409 697.188 96.6688 696.824 95.6794 697.397L88.7984 701.37C87.809 701.943 87.4891 703.23 88.1065 704.19L145.387 794.166C139.927 796.681 134.645 799.501 129.557 802.619L66.1318 719.972C65.4325 719.065 64.1233 718.923 63.2455 719.66L57.1604 724.764C56.2826 725.501 56.1933 726.818 56.967 727.666L127.042 804.189C121.88 807.486 116.933 811.087 112.224 814.971L38.0645 747.028C37.2239 746.254 35.8998 746.343 35.1633 747.221L30.0602 753.308C29.3237 754.186 29.4651 755.496 30.3726 756.195L109.694 817.099C104.941 821.184 100.433 825.56 96.2151 830.195L15.1227 778.548C14.1556 777.93 12.8761 778.25 12.3033 779.24L8.33092 786.123C7.75812 787.112 8.13007 788.385 9.14177 788.913L93.7379 832.986C89.52 837.852 85.6071 842.994 82.0215 848.366L-2.00182 813.572C-3.05816 813.133 -4.27071 813.669 -4.65754 814.741L-7.37277 822.204C-7.76703 823.283 -7.17935 824.466 -6.08582 824.808L79.7377 851.893C76.2116 857.504 73.0426 863.352 70.2605 869.424L-12.7809 851.03C-13.8967 850.784 -14.9977 851.514 -15.1986 852.645L-16.5748 860.465C-16.7756 861.596 -15.9945 862.66 -14.8564 862.809L68.3412 873.784C65.7004 880.057 63.4687 886.546 61.6759 893.213L-16.8872 889.797C-18.0328 889.745 -18.985 890.661 -18.985 891.807L-18.985 899.753C-18.985 900.899 -18.0328 901.815 -16.8872 901.763L60.3666 898.407C57.7779 909.553 56.4091 921.169 56.4091 933.104L56.3942 933.126Z" fill="#F4F2E5"/>
<path d="M283.41 867.207C265.214 846.751 238.716 833.841 209.258 833.841C154.522 833.841 109.999 878.383 110 933.126C110 955.538 117.468 976.239 130.033 992.87C153.696 985.696 178.795 981.827 204.809 981.827C206.677 981.827 208.536 981.857 210.396 981.894C224.158 937.271 249.704 897.826 283.41 867.192V867.207Z" fill="#F4F2E5"/>
<path d="M512.597 788.928L597.193 833C595.505 834.95 593.861 836.944 592.269 838.983C606.73 847.972 620.239 858.352 632.603 869.945C651.312 846.26 680.272 831.036 712.721 831.036C743.02 831.036 770.269 844.311 788.978 865.346C801.676 854.058 815.498 843.998 830.257 835.374C828.687 833.492 827.08 831.646 825.421 829.838L903.947 788.928C904.966 788.399 905.331 787.127 904.758 786.137L900.786 779.254C900.213 778.265 898.926 777.945 897.966 778.562L822.438 826.668C817.915 822.003 813.095 817.627 808.014 813.565L882.716 756.202C883.624 755.503 883.765 754.193 883.029 753.315L877.926 747.228C877.189 746.35 875.872 746.261 875.024 747.035L804.986 811.206C799.965 807.396 794.706 803.891 789.231 800.721L856.122 727.674C856.896 726.825 856.806 725.508 855.929 724.772L849.843 719.667C848.966 718.931 847.649 719.072 846.957 719.98L786.277 799.047C780.914 796.093 775.35 793.459 769.622 791.16L824.99 704.19C825.607 703.223 825.287 701.943 824.298 701.37L817.417 697.396C816.428 696.823 815.155 697.195 814.627 698.207L766.802 790.059C761.215 787.945 755.473 786.152 749.596 784.694L790.242 686.48C790.681 685.424 790.146 684.211 789.074 683.824L781.613 681.108C780.534 680.714 779.352 681.302 779.009 682.395L746.94 784.061C741.234 782.759 735.41 781.777 729.481 781.13L752.966 675.073C753.211 673.957 752.482 672.856 751.351 672.655L743.533 671.279C742.402 671.078 741.338 671.859 741.19 672.997L726.966 780.877C722.28 780.445 717.534 780.214 712.736 780.214C711.65 780.214 710.571 780.237 709.485 780.259L714.261 670.326C714.313 669.18 713.398 668.228 712.252 668.228H704.307C703.162 668.228 702.247 669.18 702.299 670.326L707.075 780.333C701.205 780.549 695.418 781.085 689.734 781.941L675.377 673.005C675.228 671.866 674.164 671.085 673.034 671.286L665.215 672.663C664.085 672.864 663.356 673.957 663.601 675.081L687.346 782.328C681.544 783.295 675.853 784.59 670.296 786.197L637.557 682.403C637.215 681.309 636.025 680.729 634.954 681.116L627.492 683.832C626.414 684.226 625.885 685.431 626.324 686.488L667.886 786.911C662.217 788.645 656.698 790.714 651.327 793.065L601.939 698.215C601.411 697.195 600.139 696.831 599.15 697.404L592.269 701.377C591.279 701.95 590.959 703.238 591.577 704.197L648.857 794.174C643.397 796.689 638.115 799.509 633.027 802.626L569.602 719.98C568.903 719.072 567.594 718.931 566.716 719.667L560.631 724.772C559.753 725.508 559.664 726.825 560.437 727.674L630.513 804.196C625.35 807.493 620.403 811.094 615.694 814.978L541.535 747.035C540.694 746.261 539.37 746.35 538.634 747.229L533.531 753.315C532.794 754.193 532.935 755.503 533.843 756.202L613.165 817.107C608.411 821.192 603.903 825.567 599.685 830.203L518.593 778.555C517.626 777.937 516.346 778.257 515.774 779.247L511.801 786.13C511.228 787.119 511.6 788.392 512.612 788.92L512.597 788.928Z" fill="#F4F2E5"/>
<path d="M708.265 981.834C710.132 981.834 711.992 981.864 713.852 981.901C727.614 937.278 753.159 897.833 786.865 867.199C768.669 846.744 742.172 833.834 712.713 833.834C681.068 833.834 652.837 848.723 634.649 871.865C665.885 901.792 689.6 939.51 702.671 981.901C704.531 981.864 706.39 981.834 708.257 981.834H708.265Z" fill="#F4F2E5"/>
<path d="M1378.48 747.05L1308.44 811.221C1303.42 807.411 1298.16 803.906 1292.69 800.736L1359.58 727.688C1360.35 726.84 1360.26 725.523 1359.38 724.786L1353.3 719.682C1352.42 718.945 1351.1 719.087 1350.41 719.995L1289.73 799.062C1284.37 796.108 1278.81 793.474 1273.08 791.175L1328.45 704.205C1329.06 703.237 1328.74 701.958 1327.75 701.385L1320.87 697.411C1319.88 696.838 1318.61 697.21 1318.08 698.222L1270.26 790.073C1264.67 787.96 1258.93 786.167 1253.05 784.708L1293.7 686.495C1294.14 685.439 1293.6 684.226 1292.53 683.839L1285.07 681.123C1283.99 680.729 1282.81 681.316 1282.47 682.41L1250.4 784.076C1244.69 782.774 1238.87 781.792 1232.94 781.144L1256.42 675.088C1256.67 673.972 1255.94 672.871 1254.81 672.67L1246.99 671.293C1245.86 671.092 1244.79 671.874 1244.65 673.012L1230.42 780.891C1225.74 780.46 1220.99 780.229 1216.19 780.229C1215.11 780.229 1214.03 780.251 1212.94 780.274L1217.72 670.341C1217.77 669.195 1216.85 668.243 1215.71 668.243H1207.76C1206.62 668.243 1205.7 669.195 1205.75 670.341L1210.53 780.348C1204.66 780.564 1198.87 781.1 1193.19 781.955L1178.83 673.02C1178.68 671.881 1177.62 671.1 1176.49 671.301L1168.67 672.677C1167.54 672.878 1166.81 673.972 1167.06 675.096L1190.8 782.342C1185 783.31 1179.31 784.604 1173.75 786.212L1141.01 682.418C1140.67 681.324 1139.48 680.743 1138.41 681.13L1130.95 683.846C1129.87 684.241 1129.34 685.446 1129.78 686.503L1171.34 786.926C1165.67 788.66 1160.15 790.728 1154.78 793.08L1105.4 698.23C1104.87 697.21 1103.59 696.846 1102.61 697.419L1095.72 701.392C1094.73 701.965 1094.42 703.252 1095.03 704.212L1152.31 794.188C1146.85 796.703 1141.57 799.523 1136.48 802.641L1073.06 719.995C1072.36 719.087 1071.05 718.945 1070.17 719.682L1064.09 724.786C1063.21 725.523 1063.12 726.84 1063.89 727.688L1133.97 804.211C1128.81 807.508 1123.86 811.109 1119.15 814.993L1044.99 747.05C1044.15 746.276 1042.83 746.365 1042.09 747.243L1036.99 753.33C1036.25 754.208 1036.39 755.518 1037.3 756.217L1116.62 817.121C1111.87 821.206 1107.36 825.582 1103.14 830.217L1022.05 778.57C1021.08 777.952 1019.8 778.272 1019.23 779.262L1015.26 786.145C1014.68 787.134 1015.06 788.407 1016.07 788.935L1100.66 833.008C1098.98 834.957 1097.33 836.951 1095.74 838.99C1110.2 847.979 1123.71 858.359 1136.07 869.952C1154.78 846.268 1183.74 831.043 1216.19 831.043C1248.64 831.043 1275.79 845.337 1294.53 867.764C1307.04 856.32 1320.69 846.104 1335.28 837.286C1333.23 834.741 1331.1 832.256 1328.89 829.845L1407.42 788.935C1408.44 788.407 1408.8 787.134 1408.23 786.145L1404.26 779.262C1403.68 778.272 1402.4 777.952 1401.44 778.57L1325.91 826.675C1321.39 822.01 1316.57 817.635 1311.48 813.572L1386.19 756.21C1387.09 755.51 1387.24 754.201 1386.5 753.323L1381.4 747.236C1380.66 746.358 1379.34 746.268 1378.49 747.042L1378.48 747.05Z" fill="#F4F2E5"/>
<path d="M1216.18 833.841C1184.54 833.841 1156.31 848.73 1138.12 871.872C1169.36 901.799 1193.07 939.518 1206.14 981.909C1208 981.872 1209.86 981.842 1211.73 981.842C1215.19 981.842 1218.62 981.931 1222.05 982.065C1235.43 938.565 1260.03 899.984 1292.46 869.677C1274.23 847.8 1246.8 833.849 1216.18 833.849L1216.18 833.841Z" fill="#F4F2E5"/>
<path d="M1904.88 778.57L1829.36 826.675C1824.83 822.01 1820.01 817.635 1814.93 813.572L1889.63 756.21C1890.54 755.51 1890.68 754.201 1889.95 753.322L1884.84 747.236C1884.11 746.358 1882.79 746.268 1881.94 747.042L1811.9 811.213C1806.88 807.403 1801.62 803.899 1796.15 800.729L1863.04 727.681C1863.81 726.833 1863.72 725.516 1862.85 724.779L1856.76 719.674C1855.88 718.938 1854.57 719.079 1853.88 719.987L1793.2 799.055C1787.83 796.101 1782.27 793.466 1776.54 791.167L1831.91 704.197C1832.53 703.23 1832.21 701.95 1831.22 701.377L1824.34 697.404C1823.35 696.831 1822.07 697.203 1821.55 698.215L1773.72 790.066C1768.13 787.953 1762.39 786.159 1756.51 784.701L1797.16 686.488C1797.6 685.431 1797.06 684.218 1795.99 683.831L1788.53 681.115C1787.45 680.721 1786.27 681.309 1785.93 682.403L1753.86 784.068C1748.15 782.766 1742.33 781.784 1736.4 781.137L1759.88 675.081C1760.13 673.965 1759.4 672.863 1758.27 672.662L1750.45 671.286C1749.32 671.085 1748.26 671.866 1748.11 673.005L1733.88 780.884C1729.2 780.452 1724.45 780.222 1719.65 780.222C1718.57 780.222 1717.49 780.244 1716.4 780.266L1721.18 670.333C1721.23 669.188 1720.32 668.235 1719.17 668.235H1711.23C1710.08 668.235 1709.16 669.188 1709.22 670.333L1713.99 780.341C1708.12 780.556 1702.34 781.092 1696.65 781.948L1682.3 673.012C1682.15 671.874 1681.08 671.092 1679.95 671.293L1672.13 672.67C1671 672.871 1670.27 673.965 1670.52 675.088L1694.26 782.335C1688.46 783.302 1682.77 784.597 1677.21 786.204L1644.48 682.41C1644.13 681.316 1642.94 680.736 1641.87 681.123L1634.41 683.839C1633.33 684.233 1632.8 685.439 1633.24 686.495L1674.8 786.918C1669.14 788.652 1663.62 790.721 1658.24 793.072L1608.86 698.222C1608.33 697.203 1607.06 696.838 1606.07 697.411L1599.19 701.385C1598.2 701.958 1597.88 703.245 1598.5 704.205L1655.78 794.181C1650.32 796.696 1645.03 799.516 1639.95 802.634L1576.52 719.987C1575.82 719.079 1574.51 718.938 1573.63 719.674L1567.55 724.779C1566.67 725.516 1566.58 726.833 1567.36 727.681L1637.43 804.204C1632.27 807.5 1627.32 811.102 1622.61 814.986L1548.45 747.042C1547.61 746.268 1546.29 746.358 1545.55 747.236L1540.45 753.323C1539.71 754.201 1539.85 755.51 1540.76 756.21L1620.08 817.114C1615.33 821.199 1610.82 825.574 1606.6 830.21L1525.51 778.562C1524.54 777.945 1523.26 778.265 1522.69 779.254L1518.72 786.137C1518.15 787.127 1518.52 788.399 1519.53 788.927L1604.13 833C1602.99 834.317 1601.87 835.657 1600.78 837.018C1615.39 845.806 1629.06 856 1641.6 867.422C1660.34 845.189 1688.38 831.036 1719.66 831.036C1775.94 831.036 1821.73 876.835 1821.73 933.133C1821.73 956.877 1813.59 978.761 1799.94 996.121C1816.39 1001.85 1832.08 1009.2 1846.82 1017.99C1863.05 993.71 1872.52 964.527 1872.52 933.133C1872.52 921.339 1871.18 909.85 1868.65 898.823L1936.91 901.792C1938.06 901.844 1939.01 900.929 1939.01 899.783V891.836C1939.01 890.69 1938.06 889.775 1936.91 889.827L1867.15 892.863C1865.26 885.935 1862.91 879.201 1860.1 872.705L1934.87 862.846C1936.01 862.697 1936.79 861.633 1936.59 860.502L1935.21 852.682C1935.01 851.551 1933.92 850.821 1932.8 851.067L1857.83 867.675C1854.85 861.402 1851.46 855.36 1847.69 849.594L1926.11 824.845C1927.2 824.503 1927.78 823.312 1927.39 822.241L1924.68 814.777C1924.29 813.698 1923.08 813.17 1922.02 813.609L1844.94 845.531C1841.09 840.032 1836.88 834.793 1832.36 829.86L1910.89 788.95C1911.91 788.421 1912.27 787.149 1911.7 786.159L1907.73 779.276C1907.15 778.287 1905.87 777.967 1904.91 778.584L1904.88 778.57Z" fill="#F4F2E5"/>
<path d="M1719.65 833.841C1689.18 833.841 1661.88 847.652 1643.65 869.334C1676.2 899.641 1700.91 938.267 1714.36 981.842C1714.63 981.842 1714.92 981.834 1715.19 981.834C1743.82 981.834 1771.37 986.515 1797.1 995.146C1810.74 978.143 1818.9 956.572 1818.9 933.133C1818.9 878.383 1774.38 833.848 1719.65 833.848V833.841Z" fill="#F4F2E5"/>
<path d="M456.537 1144.07C460.658 1144.07 464.757 1144.17 468.834 1144.37C484.924 1103.85 510.998 1068.4 544.012 1041.02C526.263 1013.97 495.674 996.077 460.986 996.077C424.2 996.077 392.026 1016.2 374.879 1046.01C405.141 1072.65 429.102 1106.27 444.233 1144.37C448.31 1144.17 452.408 1144.07 456.53 1144.07H456.537Z" fill="#F4F2E5"/>
<path d="M460.986 993.264C496.551 993.264 527.929 1011.56 546.207 1039.23C580.798 1011.18 622.798 991.91 668.816 984.833C668.794 984.707 668.764 984.58 668.719 984.454L666.004 976.99C665.61 975.911 664.405 975.383 663.348 975.822L586.266 1007.74C582.412 1002.25 578.209 997.007 573.686 992.073L652.212 951.163C653.231 950.635 653.596 949.362 653.023 948.372L649.051 941.49C648.478 940.5 647.191 940.18 646.231 940.798L570.703 988.903C566.18 984.238 561.36 979.863 556.279 975.8L630.981 918.438C631.889 917.738 632.03 916.428 631.294 915.55L626.191 909.464C625.454 908.586 624.137 908.496 623.289 909.27L553.251 973.441C548.23 969.639 542.971 966.127 537.496 962.957L604.387 889.909C605.16 889.068 605.071 887.744 604.193 887.007L598.108 881.902C597.231 881.166 595.914 881.307 595.222 882.215L534.542 961.283C529.179 958.328 523.614 955.694 517.886 953.395L573.255 866.425C573.872 865.458 573.552 864.178 572.563 863.605L565.682 859.632C564.692 859.059 563.42 859.431 562.892 860.443L515.067 952.294C509.48 950.181 503.737 948.387 497.861 946.929L538.507 848.716C538.946 847.659 538.411 846.446 537.339 846.059L529.878 843.343C528.799 842.949 527.617 843.537 527.274 844.631L495.205 946.296C489.499 944.994 483.675 944.012 477.746 943.365L501.231 837.309C501.476 836.193 500.747 835.091 499.616 834.89L491.798 833.514C490.667 833.313 489.603 834.094 489.455 835.233L475.231 943.112C470.545 942.68 465.799 942.45 461 942.45C459.914 942.45 458.836 942.472 457.75 942.494L462.525 832.561C462.578 831.416 461.663 830.463 460.517 830.463H452.572C451.426 830.463 450.511 831.416 450.564 832.561L455.339 942.569C449.47 942.784 443.683 943.32 437.999 944.176L423.642 835.24C423.493 834.102 422.429 833.32 421.299 833.521L413.473 834.898C412.342 835.099 411.613 836.193 411.859 837.316L435.604 944.563C429.801 945.53 424.111 946.825 418.554 948.432L385.815 844.638C385.472 843.544 384.282 842.964 383.211 843.351L375.75 846.067C374.671 846.461 374.143 847.667 374.582 848.723L416.143 949.146C410.475 950.888 404.955 952.949 399.584 955.3L350.197 860.45C349.669 859.431 348.397 859.066 347.407 859.639L340.526 863.613C339.537 864.185 339.217 865.473 339.834 866.433L397.115 956.409C391.654 958.924 386.373 961.744 381.284 964.862L317.86 882.215C317.16 881.307 315.851 881.166 314.973 881.903L308.888 887.007C308.01 887.744 307.921 889.061 308.695 889.909L378.77 966.432C373.607 969.728 368.66 973.33 363.952 977.214L289.792 909.27C288.944 908.496 287.628 908.586 286.891 909.464L281.788 915.55C281.052 916.429 281.193 917.738 282.1 918.438L361.422 979.342C356.669 983.427 352.161 987.802 347.943 992.438L266.85 940.79C265.883 940.173 264.604 940.493 264.031 941.482L260.059 948.365C259.486 949.355 259.858 950.627 260.87 951.155L345.466 995.228C341.248 1000.09 337.335 1005.24 333.749 1010.61L249.726 975.815C248.67 975.376 247.457 975.911 247.07 976.983L244.355 984.446C244.31 984.573 244.281 984.699 244.258 984.826C274.014 989.402 302.096 999.068 327.582 1012.92L331.465 1014.14C331.317 1014.37 331.175 1014.61 331.027 1014.84C345.905 1023.23 359.875 1033.04 372.737 1044.12C390.442 1013.73 423.367 993.256 460.993 993.256L460.986 993.264Z" fill="#F4F2E5"/>
<path d="M1675.05 975.829L1597.97 1007.75C1594.11 1002.25 1589.91 997.014 1585.39 992.081L1663.91 951.17C1664.93 950.642 1665.3 949.369 1664.72 948.38L1660.75 941.497C1660.18 940.507 1658.89 940.187 1657.93 940.805L1582.4 988.911C1577.88 984.245 1573.06 979.87 1567.98 975.807L1642.68 918.445C1643.59 917.745 1643.73 916.436 1643 915.558L1637.89 909.471C1637.16 908.593 1635.84 908.504 1634.99 909.277L1564.95 973.448C1559.93 969.646 1554.67 966.134 1549.2 962.964L1616.09 889.916C1616.86 889.075 1616.77 887.751 1615.9 887.014L1609.81 881.91C1608.93 881.173 1607.62 881.314 1606.92 882.222L1546.24 961.29C1540.88 958.336 1535.32 955.702 1529.59 953.402L1584.96 866.432C1585.57 865.465 1585.25 864.185 1584.26 863.612L1577.38 859.639C1576.39 859.066 1575.12 859.438 1574.59 860.45L1526.77 952.301C1521.18 950.188 1515.44 948.395 1509.56 946.936L1550.21 848.723C1550.65 847.666 1550.11 846.453 1549.04 846.067L1541.58 843.351C1540.5 842.956 1539.32 843.544 1538.98 844.638L1506.91 946.304C1501.2 945.002 1495.38 944.019 1489.45 943.372L1512.93 837.316C1513.18 836.2 1512.45 835.099 1511.32 834.898L1503.5 833.521C1502.37 833.32 1501.31 834.102 1501.16 835.24L1486.93 943.119C1482.25 942.687 1477.5 942.457 1472.7 942.457C1471.62 942.457 1470.54 942.479 1469.45 942.501L1474.23 832.569C1474.28 831.423 1473.36 830.47 1472.22 830.47H1464.27C1463.13 830.47 1462.21 831.423 1462.27 832.569L1467.04 942.576C1461.17 942.792 1455.38 943.327 1449.7 944.183L1435.34 835.247C1435.19 834.109 1434.13 833.328 1433 833.529L1425.18 834.905C1424.05 835.106 1423.32 836.2 1423.57 837.323L1447.31 944.57C1441.51 945.537 1435.82 946.832 1430.26 948.439L1397.52 844.645C1397.18 843.552 1395.99 842.971 1394.92 843.358L1387.46 846.074C1386.38 846.468 1385.85 847.674 1386.29 848.73L1427.85 949.154C1422.18 950.895 1416.66 952.956 1411.29 955.307L1361.91 860.457C1361.38 859.438 1360.11 859.073 1359.12 859.646L1352.24 863.62C1351.25 864.193 1350.93 865.48 1351.54 866.44L1408.82 956.416C1403.36 958.931 1398.08 961.751 1392.99 964.869L1329.57 882.222C1328.87 881.314 1327.56 881.173 1326.68 881.91L1320.6 887.014C1319.72 887.751 1319.63 889.068 1320.4 889.916L1390.48 966.439C1385.32 969.735 1380.37 973.337 1375.66 977.221L1301.5 909.278C1300.66 908.504 1299.34 908.593 1298.6 909.471L1293.5 915.558C1292.76 916.436 1292.9 917.745 1293.81 918.445L1373.13 979.349C1368.38 983.434 1363.87 987.809 1359.65 992.445L1278.56 940.797C1277.59 940.18 1276.31 940.5 1275.74 941.49L1271.77 948.372C1271.2 949.362 1271.57 950.634 1272.58 951.163L1357.17 995.235C1352.96 1000.1 1349.04 1005.24 1345.46 1010.62L1261.44 975.822C1260.38 975.383 1259.17 975.919 1258.78 976.99L1256.06 984.454C1255.92 984.848 1255.91 985.25 1256 985.629C1281.16 989.99 1305.06 997.996 1327.14 1009.09L1343.17 1014.15C1342.61 1015.05 1342.04 1015.97 1341.5 1016.88C1356.3 1025.53 1370.14 1035.61 1382.87 1046.94C1400.14 1015.01 1433.93 993.264 1472.71 993.264C1507.2 993.264 1537.76 1010.47 1556.24 1036.75C1591.39 1009.13 1633.9 990.473 1680.35 984.186L1677.73 976.99C1677.33 975.911 1676.13 975.383 1675.07 975.822L1675.05 975.829Z" fill="#F4F2E5"/>
<path d="M1472.69 996.076C1434.74 996.076 1401.71 1017.48 1385.01 1048.86C1413.76 1075.03 1436.56 1107.62 1451.16 1144.37C1455.24 1144.17 1459.33 1144.07 1463.46 1144.07C1467.58 1144.07 1471.68 1144.17 1475.75 1144.37C1492.34 1102.61 1519.54 1066.22 1554.02 1038.52C1536.05 1012.88 1506.3 996.076 1472.68 996.076H1472.69Z" fill="#F4F2E5"/>
<path d="M972.297 1144.37C988.387 1103.85 1014.46 1068.4 1047.48 1041.02C1029.73 1013.97 999.137 996.076 964.449 996.076C927.663 996.076 895.489 1016.2 878.342 1046.01C908.604 1072.65 932.565 1106.27 947.696 1144.37C951.773 1144.17 955.871 1144.07 959.993 1144.07C964.114 1144.07 968.213 1144.17 972.289 1144.37H972.297Z" fill="#F4F2E5"/>
<path d="M1172.29 984.841C1172.26 984.714 1172.23 984.588 1172.19 984.461L1169.47 976.998C1169.08 975.919 1167.87 975.391 1166.82 975.83L1089.74 1007.75C1085.88 1002.25 1081.68 997.014 1077.16 992.081L1155.68 951.17C1156.7 950.642 1157.07 949.369 1156.49 948.38L1152.52 941.497C1151.95 940.507 1150.66 940.187 1149.7 940.805L1074.17 988.911C1069.65 984.245 1064.83 979.87 1059.75 975.807L1134.45 918.445C1135.36 917.745 1135.5 916.436 1134.76 915.558L1129.66 909.471C1128.92 908.593 1127.61 908.504 1126.76 909.278L1056.72 973.448C1051.7 969.646 1046.44 966.134 1040.97 962.964L1107.86 889.916C1108.63 889.075 1108.54 887.751 1107.66 887.014L1101.58 881.91C1100.7 881.173 1099.38 881.315 1098.69 882.222L1038.01 961.29C1032.65 958.336 1027.08 955.702 1021.36 953.403L1076.72 866.433C1077.34 865.465 1077.02 864.185 1076.03 863.612L1069.15 859.639C1068.16 859.066 1066.89 859.438 1066.36 860.45L1018.54 952.301C1012.95 950.188 1007.21 948.395 1001.33 946.936L1041.98 848.723C1042.42 847.666 1041.88 846.454 1040.81 846.067L1033.35 843.351C1032.27 842.956 1031.09 843.544 1030.74 844.638L998.675 946.304C992.97 945.002 987.145 944.019 981.216 943.372L1004.7 837.316C1004.95 836.2 1004.22 835.099 1003.09 834.898L995.261 833.521C994.13 833.32 993.066 834.102 992.917 835.24L978.694 943.119C974.008 942.688 969.262 942.457 964.463 942.457C963.377 942.457 962.299 942.479 961.213 942.502L965.988 832.569C966.04 831.423 965.125 830.471 963.98 830.471H956.035C954.889 830.471 953.974 831.423 954.026 832.569L958.802 942.576C952.933 942.792 947.145 943.327 941.462 944.183L927.105 835.248C926.956 834.109 925.892 833.328 924.762 833.529L916.936 834.905C915.805 835.106 915.076 836.2 915.321 837.324L939.067 944.57C933.264 945.537 927.573 946.832 922.016 948.439L889.278 844.645C888.935 843.552 887.745 842.971 886.674 843.358L879.213 846.074C878.134 846.469 877.606 847.674 878.045 848.731L919.606 949.154C913.938 950.895 908.418 952.956 903.047 955.307L853.66 860.458C853.131 859.438 851.859 859.074 850.87 859.646L843.989 863.62C843 864.193 842.68 865.48 843.297 866.44L900.577 956.416C895.117 958.931 889.836 961.751 884.747 964.869L821.322 882.222C820.623 881.315 819.314 881.173 818.436 881.91L812.351 887.014C811.473 887.751 811.384 889.068 812.158 889.916L882.233 966.439C877.07 969.735 872.123 973.337 867.414 977.221L793.255 909.278C792.407 908.504 791.09 908.593 790.354 909.471L785.251 915.558C784.514 916.436 784.656 917.745 785.563 918.445L864.885 979.349C860.132 983.434 855.624 987.81 851.406 992.445L770.313 940.798C769.346 940.18 768.067 940.5 767.494 941.49L763.522 948.372C762.949 949.362 763.321 950.635 764.332 951.163L848.929 995.236C844.711 1000.1 840.798 1005.24 837.212 1010.62L753.189 975.822C752.133 975.383 750.92 975.919 750.533 976.99L747.818 984.454C747.773 984.58 747.744 984.707 747.721 984.833C777.477 989.409 805.559 999.075 831.045 1012.92L834.928 1014.15C834.78 1014.38 834.638 1014.62 834.489 1014.85C849.367 1023.24 863.338 1033.05 876.2 1044.12C893.905 1013.73 926.83 993.264 964.456 993.264C1000.02 993.264 1031.4 1011.56 1049.68 1039.23C1084.27 1011.18 1126.27 991.909 1172.29 984.833V984.841Z" fill="#F4F2E5"/>
<path d="M200.034 1378.56C148.057 1373.88 107.188 1330.06 107.188 1276.88C107.188 1220.59 152.975 1174.79 209.258 1174.79C239.557 1174.79 266.806 1188.06 285.515 1209.1C298.213 1197.81 312.035 1187.75 326.794 1179.12C325.224 1177.24 323.617 1175.4 321.958 1173.59L400.484 1132.68C401.503 1132.15 401.868 1130.88 401.295 1129.89L397.323 1123C396.75 1122.01 395.463 1121.69 394.503 1122.31L318.975 1170.42C314.453 1165.75 309.632 1161.38 304.551 1157.31L379.253 1099.95C380.161 1099.25 380.302 1097.94 379.566 1097.07L374.463 1090.98C373.726 1090.1 372.41 1090.01 371.562 1090.79L301.524 1154.96C296.502 1151.15 291.243 1147.64 285.768 1144.47L352.659 1071.42C353.433 1070.58 353.344 1069.26 352.466 1068.52L346.381 1063.42C345.503 1062.68 344.186 1062.82 343.494 1063.73L282.815 1142.8C277.451 1139.84 271.887 1137.21 266.159 1134.91L321.527 1047.94C322.144 1046.97 321.825 1045.69 320.835 1045.12L313.954 1041.15C312.965 1040.57 311.693 1040.95 311.164 1041.96L263.339 1133.81C257.753 1131.7 252.01 1129.9 246.133 1128.44L286.78 1030.23C287.218 1029.17 286.683 1027.96 285.612 1027.57L278.15 1024.86C277.072 1024.46 275.889 1025.05 275.547 1026.15L243.477 1127.81C237.771 1126.51 231.947 1125.53 226.018 1124.88L249.503 1018.82C249.748 1017.71 249.019 1016.61 247.888 1016.41L240.07 1015.03C238.939 1014.83 237.876 1015.61 237.727 1016.75L223.504 1124.63C218.817 1124.2 214.071 1123.96 209.273 1123.96C208.187 1123.96 207.108 1123.98 206.022 1124.01L210.798 1014.08C210.85 1012.93 209.935 1011.98 208.789 1011.98H200.844C199.699 1011.98 198.784 1012.93 198.836 1014.08L203.612 1124.08C197.742 1124.3 191.955 1124.83 186.271 1125.69L171.914 1016.76C171.765 1015.62 170.702 1014.84 169.571 1015.04L161.753 1016.41C160.622 1016.61 159.893 1017.71 160.138 1018.83L183.884 1126.08C178.081 1127.04 172.39 1128.34 166.833 1129.95L134.094 1026.15C133.752 1025.06 132.562 1024.48 131.491 1024.87L124.029 1027.58C122.951 1027.98 122.423 1029.18 122.862 1030.24L164.423 1130.66C158.755 1132.39 153.235 1134.46 147.864 1136.81L98.4765 1041.96C97.9484 1040.95 96.6763 1040.58 95.6869 1041.15L88.8059 1045.13C87.8165 1045.7 87.4966 1046.99 88.1141 1047.95L145.394 1137.92C139.934 1140.44 134.652 1143.26 129.564 1146.38L66.1393 1063.73C65.44 1062.82 64.1308 1062.68 63.253 1063.42L57.1679 1068.52C56.2901 1069.26 56.2008 1070.58 56.9745 1071.42L127.05 1147.95C121.887 1151.24 116.94 1154.84 112.231 1158.73L38.072 1090.79C37.2314 1090.01 35.9073 1090.1 35.1708 1090.98L30.0677 1097.07C29.3312 1097.94 29.4726 1099.25 30.3801 1099.95L109.702 1160.86C104.948 1164.94 100.44 1169.32 96.2226 1173.95L15.1302 1122.31C14.1631 1121.69 12.8836 1122.01 12.3108 1123L8.33842 1129.88C7.76562 1130.87 8.13757 1132.14 9.14927 1132.67L93.7454 1176.74C89.5275 1181.61 85.6146 1186.75 82.029 1192.12L-1.99432 1157.33C-3.05066 1156.89 -4.26321 1157.43 -4.65004 1158.5L-7.36527 1165.96C-7.75953 1167.04 -7.17185 1168.22 -6.07832 1168.57L79.7452 1195.65C76.2191 1201.26 73.0501 1207.12 70.268 1213.18L-12.7734 1194.79C-13.8892 1194.54 -14.9902 1195.27 -15.1911 1196.4L-16.5673 1204.22C-16.7681 1205.35 -15.987 1206.42 -14.8489 1206.57L68.3487 1217.54C65.7079 1223.81 63.4762 1230.3 61.6834 1236.97L-16.8797 1233.55C-18.0253 1233.5 -18.9775 1234.42 -18.9775 1235.56L-18.9775 1243.51C-18.9775 1244.66 -18.0253 1245.57 -16.8797 1245.52L60.3741 1242.16C57.7853 1253.31 56.4166 1264.93 56.4166 1276.86C56.4166 1358.36 120.169 1424.96 200.51 1429.5C199.528 1420.36 199.007 1411.07 199.007 1401.67C199.007 1393.87 199.372 1386.15 200.048 1378.53L200.034 1378.56Z" fill="#F4F2E5"/>
<path d="M209.258 1177.59C154.522 1177.59 110 1222.13 110 1276.88C110 1328.6 149.739 1371.2 200.287 1375.75C206.796 1310.61 237.563 1252.62 283.417 1210.95C265.221 1190.49 238.724 1177.58 209.265 1177.58L209.258 1177.59Z" fill="#F4F2E5"/>
<path d="M875.017 1090.8L804.979 1154.97C799.958 1151.17 794.698 1147.66 789.223 1144.49L856.115 1071.44C856.888 1070.6 856.799 1069.27 855.921 1068.54L849.836 1063.43C848.958 1062.7 847.642 1062.84 846.95 1063.74L786.27 1142.81C780.906 1139.86 775.342 1137.22 769.614 1134.92L824.982 1047.95C825.6 1046.99 825.28 1045.71 824.291 1045.13L817.41 1041.16C816.42 1040.59 815.148 1040.96 814.62 1041.97L766.795 1133.82C761.208 1131.71 755.465 1129.92 749.588 1128.46L790.235 1030.25C790.674 1029.19 790.138 1027.98 789.067 1027.59L781.606 1024.87C780.527 1024.48 779.344 1025.07 779.002 1026.16L746.933 1127.83C741.227 1126.52 735.402 1125.54 729.473 1124.89L752.958 1018.84C753.204 1017.72 752.475 1016.62 751.344 1016.42L743.526 1015.04C742.395 1014.84 741.331 1015.62 741.182 1016.76L726.959 1124.64C722.272 1124.21 717.526 1123.98 712.728 1123.98C711.642 1123.98 710.563 1123.99 709.477 1124.02L714.253 1014.09C714.305 1012.95 713.39 1011.99 712.245 1011.99H704.3C703.154 1011.99 702.239 1012.95 702.291 1014.09L707.067 1124.1C701.198 1124.31 695.41 1124.85 689.727 1125.71L675.37 1016.77C675.221 1015.63 674.157 1014.85 673.026 1015.05L665.208 1016.43C664.077 1016.63 663.348 1017.72 663.594 1018.85L687.339 1126.09C681.537 1127.06 675.846 1128.35 670.289 1129.96L637.55 1026.17C637.208 1025.07 636.017 1024.49 634.946 1024.88L627.485 1027.6C626.406 1027.99 625.878 1029.2 626.317 1030.25L667.879 1130.68C662.21 1132.41 656.69 1134.48 651.319 1136.83L601.932 1041.98C601.404 1040.96 600.132 1040.6 599.142 1041.17L592.261 1045.14C591.272 1045.72 590.952 1047 591.57 1047.96L648.85 1137.94C643.39 1140.45 638.108 1143.27 633.02 1146.39L569.595 1063.74C568.896 1062.84 567.586 1062.7 566.708 1063.43L560.623 1068.54C559.746 1069.27 559.656 1070.59 560.43 1071.44L630.505 1147.96C625.343 1151.26 620.396 1154.86 615.687 1158.74L541.528 1090.8C540.687 1090.03 539.363 1090.12 538.626 1090.99L533.523 1097.08C532.787 1097.96 532.928 1099.27 533.836 1099.97L613.157 1160.87C608.404 1164.96 603.896 1169.33 599.678 1173.97L518.586 1122.32C517.619 1121.7 516.339 1122.02 515.766 1123.01L511.794 1129.89C511.221 1130.88 511.593 1132.16 512.605 1132.69L597.201 1176.76C595.512 1178.71 593.868 1180.7 592.276 1182.74C606.738 1191.73 620.247 1202.11 632.61 1213.7C651.319 1190.02 680.279 1174.79 712.728 1174.79C743.027 1174.79 770.276 1188.07 788.985 1209.1C801.684 1197.82 815.505 1187.76 830.264 1179.13C828.695 1177.25 827.088 1175.4 825.429 1173.6L903.955 1132.68C904.974 1132.16 905.338 1130.88 904.766 1129.89L900.793 1123.01C900.22 1122.02 898.933 1121.7 897.974 1122.32L822.446 1170.43C817.923 1165.76 813.102 1161.38 808.022 1157.32L882.724 1099.96C883.631 1099.26 883.773 1097.95 883.036 1097.07L877.933 1090.99C877.197 1090.11 875.88 1090.02 875.032 1090.79L875.017 1090.8Z" fill="#F4F2E5"/>
<path d="M712.721 1177.59C681.075 1177.59 652.844 1192.48 634.656 1215.62C671.063 1250.51 697.24 1295.97 708.272 1347.08C719.803 1293.66 747.87 1246.41 786.88 1210.96C768.684 1190.5 742.187 1177.59 712.728 1177.59H712.721Z" fill="#F4F2E5"/>
<path d="M1327.75 1045.13L1320.87 1041.16C1319.88 1040.59 1318.61 1040.96 1318.08 1041.97L1270.26 1133.82C1264.67 1131.71 1258.93 1129.92 1253.05 1128.46L1293.7 1030.25C1294.14 1029.19 1293.6 1027.98 1292.53 1027.59L1285.07 1024.87C1283.99 1024.48 1282.81 1025.07 1282.47 1026.16L1250.4 1127.83C1244.69 1126.52 1238.87 1125.54 1232.94 1124.89L1256.42 1018.84C1256.67 1017.72 1255.94 1016.62 1254.81 1016.42L1246.99 1015.04C1245.86 1014.84 1244.79 1015.62 1244.65 1016.76L1230.42 1124.64C1225.74 1124.21 1220.99 1123.98 1216.19 1123.98C1215.11 1123.98 1214.03 1123.99 1212.94 1124.02L1217.72 1014.09C1217.77 1012.95 1216.85 1011.99 1215.71 1011.99H1207.76C1206.62 1011.99 1205.7 1012.95 1205.75 1014.09L1210.53 1124.1C1204.66 1124.31 1198.87 1124.85 1193.19 1125.71L1178.83 1016.77C1178.68 1015.63 1177.62 1014.85 1176.49 1015.05L1168.67 1016.43C1167.54 1016.63 1166.81 1017.72 1167.06 1018.85L1190.8 1126.09C1185 1127.06 1179.31 1128.35 1173.75 1129.96L1141.01 1026.17C1140.67 1025.07 1139.48 1024.49 1138.41 1024.88L1130.95 1027.6C1129.87 1027.99 1129.34 1029.2 1129.78 1030.25L1171.34 1130.68C1165.67 1132.41 1160.15 1134.48 1154.78 1136.83L1105.4 1041.98C1104.87 1040.96 1103.59 1040.6 1102.61 1041.17L1095.72 1045.14C1094.73 1045.72 1094.42 1047 1095.03 1047.96L1152.31 1137.94C1146.85 1140.45 1141.57 1143.27 1136.48 1146.39L1073.06 1063.74C1072.36 1062.84 1071.05 1062.7 1070.17 1063.43L1064.09 1068.54C1063.21 1069.27 1063.12 1070.59 1063.89 1071.44L1133.97 1147.96C1128.81 1151.26 1123.86 1154.86 1119.15 1158.74L1044.99 1090.8C1044.15 1090.03 1042.83 1090.12 1042.09 1090.99L1036.99 1097.08C1036.25 1097.96 1036.39 1099.27 1037.3 1099.97L1116.62 1160.87C1111.87 1164.96 1107.36 1169.33 1103.14 1173.97L1022.05 1122.32C1021.08 1121.7 1019.8 1122.02 1019.23 1123.01L1015.26 1129.89C1014.68 1130.88 1015.06 1132.16 1016.07 1132.68L1100.66 1176.76C1098.98 1178.71 1097.33 1180.7 1095.74 1182.74C1110.2 1191.73 1123.71 1202.11 1136.07 1213.7C1154.78 1190.02 1183.74 1174.79 1216.19 1174.79C1246.49 1174.79 1273.74 1188.07 1292.45 1209.1C1305.15 1197.82 1318.97 1187.76 1333.73 1179.13C1332.16 1177.25 1330.55 1175.4 1328.89 1173.6L1407.42 1132.68C1408.44 1132.16 1408.8 1130.88 1408.23 1129.89L1404.26 1123.01C1403.68 1122.02 1402.4 1121.7 1401.44 1122.32L1325.91 1170.43C1321.39 1165.76 1316.57 1161.38 1311.48 1157.32L1386.19 1099.96C1387.09 1099.26 1387.24 1097.95 1386.5 1097.07L1381.4 1090.99C1380.66 1090.11 1379.34 1090.02 1378.49 1090.79L1308.46 1154.96C1303.44 1151.16 1298.18 1147.65 1292.7 1144.48L1359.59 1071.43C1360.37 1070.59 1360.28 1069.27 1359.4 1068.53L1353.31 1063.42C1352.44 1062.69 1351.12 1062.83 1350.43 1063.74L1289.75 1142.8C1284.38 1139.85 1278.82 1137.22 1273.09 1134.92L1328.46 1047.95C1329.08 1046.98 1328.76 1045.7 1327.77 1045.13L1327.75 1045.13Z" fill="#F4F2E5"/>
<path d="M1290.34 1210.96C1272.14 1190.5 1245.64 1177.59 1216.18 1177.59C1184.54 1177.59 1156.31 1192.48 1138.12 1215.62C1174.53 1250.51 1200.7 1295.97 1211.74 1347.08C1223.27 1293.66 1251.33 1246.41 1290.34 1210.96H1290.34Z" fill="#F4F2E5"/>
<path d="M1904.88 1122.31L1829.36 1170.42C1824.83 1165.75 1820.01 1161.38 1814.93 1157.31L1889.63 1099.95C1890.54 1099.25 1890.68 1097.94 1889.95 1097.06L1884.84 1090.98C1884.11 1090.1 1882.79 1090.01 1881.94 1090.78L1811.9 1154.96C1806.88 1151.15 1801.62 1147.64 1796.15 1144.47L1863.04 1071.42C1863.81 1070.58 1863.72 1069.26 1862.85 1068.52L1856.76 1063.42C1855.88 1062.68 1854.57 1062.82 1853.88 1063.73L1793.2 1142.8C1787.83 1139.84 1782.27 1137.21 1776.54 1134.91L1831.91 1047.94C1832.53 1046.97 1832.21 1045.69 1831.22 1045.12L1824.34 1041.15C1823.35 1040.57 1822.07 1040.95 1821.55 1041.96L1773.72 1133.81C1768.13 1131.7 1762.39 1129.9 1756.51 1128.44L1797.16 1030.23C1797.6 1029.17 1797.06 1027.96 1795.99 1027.57L1788.53 1024.86C1787.45 1024.46 1786.27 1025.05 1785.93 1026.15L1753.86 1127.81C1748.15 1126.51 1742.33 1125.53 1736.4 1124.88L1759.88 1018.82C1760.13 1017.71 1759.4 1016.61 1758.27 1016.4L1750.45 1015.03C1749.32 1014.83 1748.26 1015.61 1748.11 1016.75L1733.88 1124.63C1729.2 1124.19 1724.45 1123.96 1719.65 1123.96C1718.57 1123.96 1717.49 1123.98 1716.4 1124.01L1721.18 1014.08C1721.23 1012.93 1720.32 1011.98 1719.17 1011.98H1711.23C1710.08 1011.98 1709.16 1012.93 1709.22 1014.08L1713.99 1124.08C1708.12 1124.3 1702.34 1124.83 1696.65 1125.69L1682.3 1016.75C1682.15 1015.62 1681.08 1014.83 1679.95 1015.04L1672.13 1016.41C1671 1016.61 1670.27 1017.71 1670.52 1018.83L1694.26 1126.08C1688.46 1127.04 1682.77 1128.34 1677.21 1129.95L1644.48 1026.15C1644.13 1025.06 1642.94 1024.48 1641.87 1024.87L1634.41 1027.58C1633.33 1027.98 1632.8 1029.18 1633.24 1030.24L1674.8 1130.66C1669.14 1132.39 1663.62 1134.46 1658.25 1136.81L1608.86 1041.96C1608.33 1040.95 1607.06 1040.58 1606.07 1041.15L1599.19 1045.13C1598.2 1045.7 1597.88 1046.99 1598.5 1047.95L1655.78 1137.92C1650.32 1140.44 1645.03 1143.26 1639.95 1146.38L1576.52 1063.73C1575.82 1062.82 1574.51 1062.68 1573.63 1063.42L1567.55 1068.52C1566.67 1069.26 1566.58 1070.58 1567.36 1071.42L1637.43 1147.95C1632.27 1151.24 1627.32 1154.84 1622.61 1158.73L1548.45 1090.78C1547.61 1090.01 1546.29 1090.1 1545.55 1090.98L1540.45 1097.06C1539.71 1097.94 1539.85 1099.25 1540.76 1099.95L1620.08 1160.86C1615.33 1164.94 1610.82 1169.32 1606.6 1173.95L1525.51 1122.3C1524.54 1121.69 1523.26 1122.01 1522.69 1123L1518.72 1129.88C1518.15 1130.87 1518.52 1132.14 1519.53 1132.67L1604.13 1176.74C1602.44 1178.69 1600.79 1180.69 1599.2 1182.73C1613.66 1191.71 1627.17 1202.09 1639.54 1213.69C1658.25 1190 1687.21 1174.78 1719.65 1174.78C1775.94 1174.78 1821.72 1220.58 1821.72 1276.88C1821.72 1333.17 1776.13 1378.77 1720.01 1378.97C1720.67 1386.46 1721.02 1394.03 1721.02 1401.69C1721.02 1411.18 1720.49 1420.55 1719.49 1429.78C1719.54 1429.78 1719.6 1429.78 1719.65 1429.78C1804.08 1429.78 1872.52 1361.32 1872.52 1276.88C1872.52 1265.08 1871.18 1253.59 1868.65 1242.57L1936.91 1245.53C1938.06 1245.59 1939.01 1244.67 1939.01 1243.53V1235.58C1939.01 1234.43 1938.06 1233.52 1936.91 1233.57L1867.15 1236.61C1865.26 1229.68 1862.91 1222.94 1860.1 1216.45L1934.87 1206.59C1936.01 1206.44 1936.79 1205.38 1936.59 1204.24L1935.21 1196.42C1935.01 1195.29 1933.92 1194.56 1932.8 1194.81L1857.83 1211.42C1854.85 1205.14 1851.46 1199.1 1847.69 1193.34L1926.11 1168.59C1927.2 1168.25 1927.78 1167.05 1927.4 1165.98L1924.68 1158.52C1924.29 1157.44 1923.08 1156.91 1922.02 1157.35L1844.94 1189.27C1841.09 1183.77 1836.88 1178.54 1832.36 1173.6L1910.89 1132.69C1911.91 1132.16 1912.27 1130.89 1911.7 1129.9L1907.73 1123.02C1907.15 1122.03 1905.87 1121.71 1904.91 1122.33L1904.88 1122.31Z" fill="#F4F2E5"/>
<path d="M1818.9 1276.88C1818.9 1222.13 1774.38 1177.59 1719.65 1177.59C1688 1177.59 1659.77 1192.48 1641.58 1215.62C1684.77 1256.99 1713.57 1313.25 1719.76 1376.17C1774.44 1376.11 1818.91 1331.59 1818.91 1276.88L1818.9 1276.88Z" fill="#F4F2E5"/>
<path d="M560.251 1439.11C560.251 1384.36 515.722 1339.83 460.993 1339.83C406.265 1339.83 361.735 1384.37 361.735 1439.11C361.735 1493.85 406.265 1538.4 460.993 1538.4C515.722 1538.4 560.251 1493.85 560.251 1439.11Z" fill="#F4F2E5"/>
<path d="M609.981 1404.81L678.241 1407.78C679.387 1407.83 680.339 1406.91 680.339 1405.77V1397.82C680.339 1396.68 679.387 1395.76 678.241 1395.81L608.478 1398.85C606.589 1391.92 604.231 1385.19 601.434 1378.69L676.203 1368.83C677.341 1368.68 678.122 1367.62 677.921 1366.49L676.545 1358.67C676.344 1357.54 675.251 1356.81 674.127 1357.05L599.157 1373.66C596.182 1367.39 592.79 1361.35 589.018 1355.58L667.44 1330.83C668.533 1330.49 669.113 1329.3 668.727 1328.23L666.011 1320.76C665.617 1319.68 664.412 1319.16 663.356 1319.59L586.273 1351.52C582.42 1346.02 578.217 1340.78 573.694 1335.85L652.22 1294.94C653.239 1294.41 653.603 1293.13 653.03 1292.14L649.058 1285.26C648.485 1284.27 647.198 1283.95 646.239 1284.57L570.711 1332.68C566.188 1328.01 561.367 1323.63 556.286 1319.57L630.989 1262.21C631.896 1261.51 632.038 1260.2 631.301 1259.32L626.198 1253.24C625.462 1252.36 624.145 1252.27 623.297 1253.04L553.259 1317.21C548.237 1313.41 542.978 1309.9 537.503 1306.73L604.394 1233.68C605.168 1232.83 605.079 1231.52 604.201 1230.78L598.116 1225.67C597.238 1224.94 595.921 1225.08 595.23 1225.99L534.55 1305.05C529.186 1302.1 523.622 1299.47 517.894 1297.17L573.262 1210.2C573.88 1209.23 573.56 1207.95 572.57 1207.38L565.689 1203.4C564.7 1202.83 563.428 1203.2 562.9 1204.21L515.074 1296.07C509.488 1293.95 503.745 1292.16 497.868 1290.7L538.515 1192.49C538.954 1191.43 538.418 1190.22 537.347 1189.83L529.885 1187.12C528.807 1186.72 527.624 1187.31 527.282 1188.4L495.212 1290.07C489.507 1288.77 483.682 1287.78 477.753 1287.14L501.238 1181.08C501.483 1179.96 500.754 1178.86 499.624 1178.66L491.805 1177.29C490.675 1177.09 489.611 1177.87 489.462 1179.01L475.239 1286.88C470.552 1286.45 465.806 1286.22 461.008 1286.22C459.922 1286.22 458.843 1286.24 457.757 1286.27L462.533 1176.33C462.585 1175.19 461.67 1174.24 460.524 1174.24H452.58C451.434 1174.24 450.519 1175.19 450.571 1176.33L455.347 1286.34C449.478 1286.56 443.69 1287.09 438.007 1287.95L423.649 1179.01C423.501 1177.87 422.437 1177.09 421.306 1177.29L413.48 1178.67C412.35 1178.87 411.621 1179.97 411.866 1181.09L435.611 1288.34C429.809 1289.3 424.118 1290.6 418.561 1292.2L385.822 1188.41C385.48 1187.32 384.29 1186.74 383.219 1187.12L375.757 1189.84C374.679 1190.23 374.15 1191.44 374.589 1192.5L416.151 1292.92C410.482 1294.65 404.963 1296.72 399.592 1299.07L350.204 1204.22C349.676 1203.2 348.404 1202.84 347.415 1203.41L340.534 1207.38C339.544 1207.96 339.224 1209.25 339.842 1210.21L397.122 1300.18C391.662 1302.7 386.38 1305.52 381.292 1308.63L317.867 1225.99C317.168 1225.08 315.859 1224.94 314.981 1225.67L308.896 1230.78C308.018 1231.52 307.929 1232.83 308.702 1233.68L378.777 1310.2C373.615 1313.5 368.668 1317.1 363.959 1320.99L289.8 1253.04C288.952 1252.27 287.635 1252.36 286.899 1253.24L281.795 1259.32C281.059 1260.2 281.2 1261.51 282.108 1262.21L361.43 1323.11C356.676 1327.2 352.168 1331.57 347.95 1336.21L266.858 1284.56C265.891 1283.94 264.611 1284.26 264.039 1285.25L260.066 1292.14C259.493 1293.13 259.865 1294.4 260.877 1294.93L345.473 1339C341.255 1343.87 337.342 1349.01 333.757 1354.38L249.733 1319.59C248.677 1319.15 247.465 1319.68 247.078 1320.76L244.362 1328.22C243.968 1329.3 244.556 1330.48 245.649 1330.82L331.473 1357.91C327.947 1363.52 324.778 1369.37 321.996 1375.44L238.954 1357.04C237.839 1356.8 236.738 1357.53 236.537 1358.66L235.16 1366.48C234.96 1367.61 235.741 1368.68 236.879 1368.82L320.076 1379.8C317.436 1386.07 315.204 1392.56 313.411 1399.23L234.848 1395.81C233.702 1395.76 232.75 1396.68 232.75 1397.82L232.75 1405.77C232.75 1406.91 233.702 1407.83 234.848 1407.78L312.102 1404.42C309.513 1415.57 308.144 1427.18 308.144 1439.12C308.144 1523.57 376.583 1592.02 461.008 1592.02C545.433 1592.02 613.872 1523.57 613.872 1439.12C613.872 1427.32 612.533 1415.84 610.003 1404.81H609.981ZM460.986 1541.22C404.702 1541.22 358.915 1495.42 358.915 1439.12C358.915 1382.82 404.702 1337.02 460.986 1337.02C517.269 1337.02 563.056 1382.82 563.056 1439.12C563.056 1495.42 517.269 1541.22 460.986 1541.22Z" fill="#F4F2E5"/>
<path d="M1063.71 1439.11C1063.71 1384.36 1019.18 1339.83 964.456 1339.83C909.727 1339.83 865.198 1384.37 865.198 1439.11C865.198 1493.85 909.727 1538.4 964.456 1538.4C1019.18 1538.4 1063.71 1493.85 1063.71 1439.11Z" fill="#F4F2E5"/>
<path d="M1113.44 1404.81L1181.7 1407.78C1182.85 1407.83 1183.8 1406.91 1183.8 1405.77V1397.82C1183.8 1396.68 1182.85 1395.76 1181.7 1395.81L1111.94 1398.85C1110.05 1391.92 1107.69 1385.19 1104.9 1378.69L1179.67 1368.83C1180.8 1368.68 1181.59 1367.62 1181.38 1366.49L1180.01 1358.67C1179.81 1357.54 1178.71 1356.81 1177.59 1357.05L1102.62 1373.66C1099.64 1367.39 1096.25 1361.35 1092.48 1355.58L1170.9 1330.83C1172 1330.49 1172.58 1329.3 1172.19 1328.23L1169.47 1320.76C1169.08 1319.68 1167.87 1319.16 1166.82 1319.59L1089.74 1351.52C1085.88 1346.02 1081.68 1340.78 1077.16 1335.85L1155.68 1294.94C1156.7 1294.41 1157.07 1293.13 1156.49 1292.14L1152.52 1285.26C1151.95 1284.27 1150.66 1283.95 1149.7 1284.57L1074.17 1332.68C1069.65 1328.01 1064.83 1323.63 1059.75 1319.57L1134.45 1262.21C1135.36 1261.51 1135.5 1260.2 1134.76 1259.32L1129.66 1253.24C1128.92 1252.36 1127.61 1252.27 1126.76 1253.04L1056.72 1317.21C1051.7 1313.41 1046.44 1309.9 1040.97 1306.73L1107.86 1233.68C1108.63 1232.83 1108.54 1231.52 1107.66 1230.78L1101.58 1225.67C1100.7 1224.94 1099.38 1225.08 1098.69 1225.99L1038.01 1305.05C1032.65 1302.1 1027.08 1299.47 1021.36 1297.17L1076.72 1210.2C1077.34 1209.23 1077.02 1207.95 1076.03 1207.38L1069.15 1203.4C1068.16 1202.83 1066.89 1203.2 1066.36 1204.21L1018.54 1296.07C1012.95 1293.95 1007.21 1292.16 1001.33 1290.7L1041.98 1192.49C1042.42 1191.43 1041.88 1190.22 1040.81 1189.83L1033.35 1187.12C1032.27 1186.72 1031.09 1187.31 1030.74 1188.4L998.675 1290.07C992.97 1288.77 987.145 1287.78 981.216 1287.14L1004.7 1181.08C1004.95 1179.96 1004.22 1178.86 1003.09 1178.66L995.261 1177.29C994.13 1177.09 993.066 1177.87 992.918 1179.01L978.694 1286.88C974.008 1286.45 969.262 1286.22 964.463 1286.22C963.377 1286.22 962.299 1286.24 961.213 1286.27L965.988 1176.33C966.04 1175.19 965.125 1174.24 963.98 1174.24H956.035C954.889 1174.24 953.974 1175.19 954.026 1176.33L958.802 1286.34C952.933 1286.56 947.146 1287.09 941.462 1287.95L927.105 1179.01C926.956 1177.87 925.892 1177.09 924.762 1177.29L916.936 1178.67C915.805 1178.87 915.076 1179.96 915.321 1181.09L939.067 1288.33C933.264 1289.3 927.573 1290.6 922.017 1292.2L889.278 1188.41C888.935 1187.32 887.745 1186.74 886.674 1187.12L879.213 1189.84C878.134 1190.23 877.606 1191.44 878.045 1192.5L919.606 1292.92C913.938 1294.65 908.418 1296.72 903.047 1299.07L853.66 1204.22C853.132 1203.2 851.859 1202.84 850.87 1203.41L843.989 1207.38C843 1207.96 842.68 1209.25 843.297 1210.2L900.577 1300.18C895.117 1302.7 889.836 1305.52 884.747 1308.63L821.323 1225.99C820.623 1225.08 819.314 1224.94 818.436 1225.67L812.351 1230.78C811.473 1231.52 811.384 1232.83 812.158 1233.68L882.233 1310.2C877.07 1313.5 872.123 1317.1 867.414 1320.99L793.255 1253.04C792.407 1252.27 791.09 1252.36 790.354 1253.24L785.251 1259.32C784.514 1260.2 784.656 1261.51 785.563 1262.21L864.885 1323.11C860.132 1327.2 855.624 1331.57 851.406 1336.21L770.313 1284.56C769.346 1283.94 768.067 1284.26 767.494 1285.25L763.522 1292.14C762.949 1293.13 763.321 1294.4 764.332 1294.93L848.929 1339C844.711 1343.87 840.798 1349.01 837.212 1354.38L753.189 1319.59C752.133 1319.15 750.92 1319.68 750.533 1320.76L747.818 1328.22C747.424 1329.3 748.011 1330.48 749.105 1330.82L834.928 1357.91C831.402 1363.52 828.233 1369.37 825.451 1375.44L742.41 1357.04C741.294 1356.8 740.193 1357.53 739.992 1358.66L738.616 1366.48C738.415 1367.61 739.196 1368.68 740.334 1368.82L823.532 1379.8C820.891 1386.07 818.659 1392.56 816.867 1399.23L738.304 1395.81C737.158 1395.76 736.206 1396.68 736.206 1397.82V1405.77C736.206 1406.91 737.158 1407.83 738.304 1407.78L815.557 1404.42C812.969 1415.57 811.6 1427.18 811.6 1439.12C811.6 1523.57 880.039 1592.02 964.464 1592.02C1048.89 1592.02 1117.33 1523.57 1117.33 1439.12C1117.33 1427.32 1115.99 1415.84 1113.46 1404.81H1113.44ZM964.449 1541.22C908.165 1541.22 862.378 1495.42 862.378 1439.12C862.378 1382.82 908.165 1337.02 964.449 1337.02C1020.73 1337.02 1066.52 1382.82 1066.52 1439.12C1066.52 1495.42 1020.73 1541.22 964.449 1541.22Z" fill="#F4F2E5"/>
<path d="M1567.18 1439.11C1567.18 1384.36 1522.65 1339.83 1467.92 1339.83C1413.19 1339.83 1368.66 1384.37 1368.66 1439.11C1368.66 1493.85 1413.19 1538.4 1467.92 1538.4C1522.65 1538.4 1567.18 1493.85 1567.18 1439.11Z" fill="#F4F2E5"/>
<path d="M1616.91 1404.81L1685.17 1407.78C1686.31 1407.83 1687.26 1406.91 1687.26 1405.77V1397.82C1687.26 1396.68 1686.31 1395.76 1685.17 1395.81L1615.4 1398.85C1613.51 1391.92 1611.16 1385.19 1608.36 1378.69L1683.13 1368.83C1684.27 1368.68 1685.05 1367.62 1684.85 1366.49L1683.47 1358.67C1683.27 1357.54 1682.18 1356.81 1681.05 1357.05L1606.08 1373.66C1603.11 1367.39 1599.72 1361.35 1595.94 1355.58L1674.37 1330.83C1675.46 1330.49 1676.04 1329.3 1675.65 1328.23L1672.94 1320.76C1672.54 1319.68 1671.34 1319.16 1670.28 1319.59L1593.2 1351.52C1589.35 1346.02 1585.14 1340.78 1580.62 1335.85L1659.15 1294.94C1660.16 1294.41 1660.53 1293.13 1659.96 1292.14L1655.98 1285.26C1655.41 1284.27 1654.12 1283.95 1653.16 1284.57L1577.64 1332.68C1573.11 1328.01 1568.29 1323.63 1563.21 1319.57L1637.91 1262.21C1638.82 1261.51 1638.96 1260.2 1638.23 1259.32L1633.12 1253.24C1632.39 1252.36 1631.07 1252.27 1630.22 1253.04L1560.18 1317.21C1555.16 1313.41 1549.9 1309.9 1544.43 1306.73L1611.32 1233.68C1612.09 1232.83 1612 1231.52 1611.13 1230.78L1605.04 1225.67C1604.16 1224.94 1602.85 1225.08 1602.16 1225.99L1541.48 1305.05C1536.11 1302.1 1530.55 1299.47 1524.82 1297.17L1580.19 1210.2C1580.81 1209.23 1580.49 1207.95 1579.5 1207.38L1572.62 1203.4C1571.63 1202.83 1570.35 1203.2 1569.83 1204.21L1522 1296.07C1516.41 1293.95 1510.67 1292.16 1504.79 1290.7L1545.44 1192.49C1545.88 1191.43 1545.34 1190.22 1544.27 1189.83L1536.81 1187.12C1535.73 1186.72 1534.55 1187.31 1534.21 1188.4L1502.14 1290.07C1496.43 1288.77 1490.61 1287.78 1484.68 1287.14L1508.16 1181.08C1508.41 1179.96 1507.68 1178.86 1506.55 1178.66L1498.73 1177.29C1497.6 1177.09 1496.54 1177.87 1496.39 1179L1482.16 1286.88C1477.48 1286.45 1472.73 1286.22 1467.93 1286.22C1466.85 1286.22 1465.77 1286.24 1464.68 1286.27L1469.46 1176.33C1469.51 1175.19 1468.6 1174.24 1467.45 1174.24H1459.51C1458.36 1174.24 1457.44 1175.19 1457.5 1176.33L1462.27 1286.34C1456.4 1286.56 1450.62 1287.09 1444.93 1287.95L1430.58 1179.01C1430.43 1177.87 1429.36 1177.09 1428.23 1177.29L1420.41 1178.67C1419.28 1178.87 1418.55 1179.96 1418.79 1181.09L1442.54 1288.33C1436.73 1289.3 1431.04 1290.6 1425.49 1292.2L1392.75 1188.41C1392.41 1187.32 1391.22 1186.74 1390.14 1187.12L1382.68 1189.84C1381.6 1190.23 1381.08 1191.44 1381.52 1192.5L1423.08 1292.92C1417.41 1294.66 1411.89 1296.72 1406.52 1299.07L1357.13 1204.22C1356.6 1203.2 1355.33 1202.84 1354.34 1203.41L1347.46 1207.38C1346.47 1207.96 1346.15 1209.24 1346.77 1210.2L1404.05 1300.18C1398.59 1302.7 1393.31 1305.52 1388.22 1308.63L1324.79 1225.99C1324.09 1225.08 1322.78 1224.94 1321.91 1225.67L1315.82 1230.78C1314.94 1231.52 1314.85 1232.83 1315.63 1233.68L1385.7 1310.2C1380.54 1313.5 1375.59 1317.1 1370.88 1320.99L1296.73 1253.04C1295.88 1252.27 1294.56 1252.36 1293.82 1253.24L1288.72 1259.32C1287.98 1260.2 1288.13 1261.51 1289.03 1262.21L1368.36 1323.11C1363.6 1327.2 1359.09 1331.57 1354.88 1336.21L1273.78 1284.56C1272.82 1283.94 1271.54 1284.26 1270.96 1285.25L1266.99 1292.14C1266.42 1293.13 1266.79 1294.4 1267.8 1294.93L1352.4 1339C1348.18 1343.87 1344.27 1349.01 1340.68 1354.38L1256.66 1319.59C1255.6 1319.15 1254.39 1319.68 1254 1320.76L1251.29 1328.22C1250.89 1329.3 1251.48 1330.48 1252.58 1330.82L1338.4 1357.91C1334.87 1363.52 1331.7 1369.37 1328.92 1375.44L1245.88 1357.04C1244.76 1356.8 1243.66 1357.53 1243.46 1358.66L1242.09 1366.48C1241.89 1367.61 1242.67 1368.68 1243.8 1368.82L1327 1379.8C1324.36 1386.07 1322.13 1392.56 1320.34 1399.23L1241.77 1395.81C1240.63 1395.76 1239.68 1396.68 1239.68 1397.82V1405.77C1239.68 1406.91 1240.63 1407.83 1241.77 1407.78L1319.03 1404.42C1316.44 1415.57 1315.07 1427.18 1315.07 1439.12C1315.07 1523.57 1383.51 1592.02 1467.93 1592.02C1552.36 1592.02 1620.8 1523.57 1620.8 1439.12C1620.8 1427.32 1619.46 1415.84 1616.93 1404.81H1616.91ZM1467.92 1541.22C1411.64 1541.22 1365.85 1495.42 1365.85 1439.12C1365.85 1382.82 1411.64 1337.02 1467.92 1337.02C1524.2 1337.02 1569.99 1382.82 1569.99 1439.12C1569.99 1495.42 1524.2 1541.22 1467.92 1541.22Z" fill="#F4F2E5"/>
</g>
</svg>
