<svg width="157" height="107" viewBox="0 0 157 107" fill="none" xmlns="http://www.w3.org/2000/svg">
<g clip-path="url(#clip0_32_785)">
<path d="M139.661 41.3767C140.009 40.5261 139.476 40.3108 138.822 40.0524L42.2588 0.0538762C41.6053 -0.204526 40.8973 0.624514 40.5488 1.47509C40.2003 2.32566 40.0696 3.3485 40.7231 3.61767L138.18 41.775C138.833 42.0335 139.312 42.2273 139.661 41.3767Z" fill="#AB7B45"/>
<path d="M145.978 93.2724L153.46 98.1497C153.46 98.1497 155.987 94.4244 156.749 89.3425C159.157 73.3862 143.353 60.5845 142.144 59.5724C135.282 53.8337 125.818 44.4774 124.26 40.483C122.703 36.4885 119.141 27.4659 128.606 16.71C128.606 16.71 119.936 24.8819 118.978 30.7713C118.02 36.6608 120.993 43.7345 125.491 49.1502C129.989 54.5659 140.478 62.0165 144.399 69.1548C146.468 72.4064 152.785 79.534 145.967 93.2724" fill="#E0D0A6"/>
<path d="M117.922 107C117.922 107 128.682 99.4633 131.405 89.6979C134.128 79.9324 130.773 70.7376 126.798 62.6302C122.823 54.5229 118.51 46.4263 118.259 40.9137C118.009 35.3904 120.122 24.053 126.308 19.7786C122.507 23.9453 116.93 31.2882 115.721 40.2677C113.914 53.6185 142.732 81.8489 112.933 98.5051L117.922 107.011V107Z" fill="#E0D0A6"/>
<path d="M7.24301 50.8406C7.24301 52.1326 7.5153 53.0801 8.07076 53.7045C8.63712 54.329 9.45397 54.6412 10.4887 54.6412C11.1204 54.6412 11.6867 54.5766 12.1986 54.4582C12.4382 54.3936 12.6452 54.329 12.8194 54.2536C12.9937 54.1783 13.1571 54.1137 13.2878 54.0491L13.462 59.2494C13.2878 59.3032 13.0264 59.3678 12.6887 59.4217C12.3511 59.4755 11.9481 59.5509 11.4798 59.6262C10.5322 59.7447 9.51932 59.7985 8.44107 59.7985C5.62019 59.7985 3.51814 59.1202 2.11315 57.7528C0.697262 56.4285 -0.0106812 54.4044 -0.0106812 51.6804V37.802C-0.0106812 36.7361 0.250713 35.6917 0.773502 34.6797C1.29629 33.6676 1.92799 32.7524 2.66861 31.9341C3.40923 31.1159 4.19341 30.4483 5.02116 29.9208C5.84891 29.3932 6.57864 29.0917 7.21034 29.0164L7.24301 36.3485H13.1571V41.4627H7.24301V50.8298V50.8406Z" fill="#E0D0A6"/>
<path d="M31.9555 35.8641C33.0991 35.8641 34.1337 36.0794 35.0813 36.5101C36.0289 36.9407 36.8348 37.5006 37.4992 38.2004C38.1636 38.9003 38.6864 39.7078 39.0458 40.6122C39.4052 41.5166 39.5904 42.4425 39.5904 43.4008V59.314H32.2386V46.0171C32.2386 45.8448 32.1624 45.5218 31.999 45.0373C31.8465 44.5636 31.596 44.0683 31.2584 43.5623C30.9208 43.0562 30.496 42.604 29.9623 42.2057C29.4286 41.8073 28.786 41.6135 28.0236 41.6135C27.2612 41.6135 26.5533 41.7535 25.9216 42.0226C25.279 42.2918 24.7344 42.7117 24.277 43.2716C23.8196 43.8314 23.4601 44.5421 23.1987 45.3819C22.9482 46.2324 22.8175 47.223 22.8175 48.375V59.3033H15.4876V33.4846C15.4876 32.7632 15.6183 32.0526 15.8906 31.342C16.152 30.6314 16.5005 29.9531 16.9253 29.3071C17.35 28.6611 17.8293 28.0582 18.3738 27.4983C18.9184 26.9384 19.4521 26.4431 19.9858 26.034C20.5195 25.6249 21.0314 25.3019 21.5324 25.0758C22.0225 24.8389 22.4472 24.7205 22.774 24.7205V39.7939L22.8067 39.7616C23.2968 39.1048 23.8304 38.5234 24.4077 38.0389C24.9849 37.5544 25.5622 37.1561 26.1285 36.8438C26.6949 36.5316 27.2395 36.2947 27.7514 36.1332C28.2633 35.9717 28.6989 35.8748 29.0474 35.8533C29.9079 35.7779 30.5614 35.7564 31.0079 35.7994C31.4545 35.8425 31.7594 35.8533 31.9337 35.8533" fill="#E0D0A6"/>
<path d="M58.1167 59.2603V55.4381C57.7246 55.9442 57.3325 56.4179 56.9295 56.8486C56.5919 57.2254 56.2325 57.5915 55.8513 57.9468C55.4701 58.3128 55.1107 58.582 54.773 58.7543C53.477 59.4649 52.0393 59.8094 50.4927 59.8094C47.8134 59.8094 45.7223 59.1527 44.1975 57.8499C42.6835 56.5686 41.9211 54.889 41.9211 52.8218C41.9211 50.3131 42.9232 48.3859 44.9381 47.0401C45.9401 46.3833 47.1708 45.8665 48.6194 45.5112C50.0679 45.1559 51.7452 44.9836 53.6512 44.9944L57.2563 45.0482C57.18 44.4883 57.0058 43.9392 56.7553 43.4117C56.5919 43.121 56.385 42.8302 56.1236 42.5395C55.8622 42.2488 55.5245 41.9689 55.1324 41.689C55.078 41.6459 55.0126 41.6136 54.9582 41.5705C54.9037 41.5275 54.8384 41.4952 54.7839 41.4521C54.7077 41.409 54.6206 41.366 54.5443 41.3229C54.4681 41.2798 54.3809 41.226 54.2829 41.1937C54.1413 41.1506 54.0106 41.1183 53.869 41.0753C53.7275 41.0322 53.575 40.9999 53.4007 40.9568H53.2264C53.0849 40.9353 52.9542 40.9245 52.8126 40.9138C52.671 40.9138 52.5076 40.903 52.3116 40.903C51.6472 40.903 50.9828 40.9568 50.3184 41.0645C49.6541 41.1722 48.9788 41.3337 48.2926 41.549C47.6065 41.7643 46.953 42.012 46.3431 42.2919C45.7331 42.5718 45.1777 42.9056 44.6876 43.2717V37.7483C45.6678 37.2208 46.9857 36.7901 48.6194 36.4671C49.4689 36.2948 50.3075 36.1549 51.1353 36.058C51.963 35.9611 52.7908 35.9072 53.6185 35.9072H57.0493C58.1929 35.9072 59.2276 36.1118 60.1643 36.5317C61.101 36.9516 61.9069 37.5115 62.5713 38.2113C63.2357 38.9112 63.7476 39.7187 64.107 40.6231C64.4555 41.5275 64.6407 42.4642 64.6407 43.4117V47.3523H64.608L64.6407 59.2388H58.1385L58.1167 59.2603ZM57.79 48.8273C57.5504 48.9242 57.1691 48.9781 56.6355 48.9781C56.3632 48.9781 56.0473 48.9781 55.7097 48.9888C55.3612 48.9888 54.9909 48.9996 54.577 48.9996C52.5839 49.0534 51.1353 49.3441 50.2313 49.8394C49.2837 50.3993 48.8154 51.196 48.8154 52.2189C48.8154 53.0156 49.1313 53.6401 49.763 54.1138C50.3729 54.5768 51.266 54.8136 52.4532 54.8136C54.0433 54.8136 55.3394 54.2322 56.3196 53.0694C57.2998 51.9282 57.8009 50.7007 57.8009 49.3764V48.8273H57.79Z" fill="#E0D0A6"/>
<path d="M66.9714 30.373H74.0073V34.1952H66.9714V30.373ZM66.9714 36.4778H73.9746V59.3141H74.0291H66.9714V36.4778Z" fill="#E0D0A6"/>
<path d="M142.863 42.9486C143.124 42.0657 142.58 41.9042 141.894 41.7104L41.8558 11.1867C41.1805 10.9928 40.5597 11.8865 40.2874 12.7694C40.026 13.6522 39.9933 14.6858 40.6686 14.8796L141.414 43.4869C142.09 43.6915 142.58 43.8314 142.852 42.9486" fill="#AB7B45"/>
<path d="M105.669 63.4055V67.1201L105.701 67.0878C106.181 66.431 106.714 65.8711 107.281 65.3866C107.847 64.9021 108.413 64.5145 108.98 64.2023C109.535 63.9008 110.069 63.6639 110.57 63.5024C111.071 63.3409 111.496 63.244 111.844 63.2333C112.694 63.1579 113.336 63.1364 113.772 63.1794C114.208 63.2225 114.513 63.2333 114.687 63.2333C115.809 63.2333 116.832 63.4486 117.758 63.8685C118.684 64.2884 119.479 64.8483 120.133 65.5373C120.786 66.2264 121.298 67.0232 121.657 67.906C122.017 68.7997 122.191 69.7148 122.191 70.6408V86.2418H114.981V73.1925C114.981 73.0202 114.905 72.6972 114.752 72.2343C114.6 71.7713 114.36 71.2868 114.033 70.7915C113.707 70.2962 113.282 69.8548 112.759 69.4564C112.236 69.0688 111.605 68.875 110.842 68.875C110.08 68.875 109.404 69.0042 108.773 69.2734C108.141 69.5426 107.607 69.9517 107.15 70.5008C106.692 71.0499 106.344 71.7498 106.093 72.5788C105.843 73.4078 105.712 74.3876 105.712 75.5074V86.2418H98.5566L98.513 68.3475V63.3948H105.68L105.669 63.4055Z" fill="#C99D66"/>
<path d="M28.9385 77.7253C28.9385 79.0066 29.2108 79.9648 29.7663 80.5893C30.3326 81.2137 31.1386 81.526 32.1842 81.526C32.8159 81.526 33.3822 81.4614 33.8941 81.3429C34.1337 81.2783 34.3407 81.2137 34.5149 81.1491C34.6892 81.0738 34.8526 81.0092 34.9833 80.9553L35.1575 86.1341C34.9833 86.188 34.7219 86.2526 34.3951 86.3064C34.0575 86.3603 33.6545 86.4356 33.1862 86.511C32.2495 86.6294 31.2366 86.6833 30.1584 86.6833C27.3484 86.6833 25.2463 86.0049 23.8522 84.6483C22.4363 83.3348 21.7284 81.3106 21.7284 78.5974V64.7729C21.7284 63.707 21.9898 62.6626 22.5126 61.6613C23.0354 60.6492 23.6562 59.7341 24.3968 58.9266C25.1374 58.1083 25.9107 57.4407 26.7385 56.9239C27.5662 56.3964 28.285 56.0949 28.9167 56.0195L28.9494 63.3302H34.8417V68.4228H28.9494V77.7576L28.9385 77.7253Z" fill="#C99D66"/>
<path d="M58.9662 74.8182C58.9662 78.4143 57.8553 81.2783 55.6335 83.4316C53.4552 85.585 50.5363 86.6616 46.8876 86.6616C43.239 86.6616 40.3092 85.585 38.1091 83.4316C35.8873 81.2783 34.7764 78.4035 34.7764 74.8182C34.7764 71.2329 35.8873 68.3259 38.1091 66.1725C39.231 65.0635 40.5162 64.2237 41.9647 63.6531C43.4133 63.0824 45.0579 62.7917 46.8768 62.7917C48.6956 62.7917 50.3402 63.0824 51.7779 63.6531C53.2156 64.2237 54.5008 65.0635 55.6226 66.1725C57.8444 68.3259 58.9554 71.2113 58.9554 74.8182M52.0502 74.8182C52.0502 72.7079 51.6145 71.0606 50.7214 69.8978C49.8174 68.7135 48.5431 68.1213 46.8985 68.1213C45.2539 68.1213 43.9687 68.7135 43.043 69.8978C42.1608 71.0606 41.7142 72.6972 41.7142 74.8182C41.7142 76.9393 42.1717 78.5004 43.0647 79.6848C43.9905 80.8907 45.2648 81.4936 46.8876 81.4936C48.5105 81.4936 49.8065 80.8907 50.6888 79.6848C51.5927 78.5004 52.0393 76.8854 52.0393 74.8182" fill="#C99D66"/>
<path d="M57.5176 63.4055H65.5882L69.1933 79.7925H69.2695L73.136 63.4055H82.4263L86.2057 79.7925H86.2928L89.8107 63.4055H97.2714L90.4424 86.1664H81.4897L77.6886 69.6933H77.6014L73.3647 86.1664H64.3792L57.5176 63.4055Z" fill="#C99D66"/>
</g>
<defs>
<clipPath id="clip0_32_785">
<rect width="157" height="107" fill="white"/>
</clipPath>
</defs>
</svg>
